<?xml version="1.0" encoding="UTF-8"?>
<!DOCTYPE svg PUBLIC "-//W3C//DTD SVG 1.1//EN" "http://www.w3.org/Graphics/SVG/1.1/DTD/svg11.dtd">
<svg xmlns="http://www.w3.org/2000/svg" version="1.1" width="1024px" height="1024px" style="shape-rendering:geometricPrecision; text-rendering:geometricPrecision; image-rendering:optimizeQuality; fill-rule:evenodd; clip-rule:evenodd" xmlns:xlink="http://www.w3.org/1999/xlink">
<g><path style="opacity:1" fill="#fef1dd" d="M -0.5,-0.5 C 340.833,-0.5 682.167,-0.5 1023.5,-0.5C 1023.5,340.833 1023.5,682.167 1023.5,1023.5C 986.833,1023.5 950.167,1023.5 913.5,1023.5C 904.266,971.437 893.1,919.77 880,868.5C 873.139,842.74 863.639,818.073 851.5,794.5C 849.461,789.434 846.627,784.767 843,780.5C 839.167,776.667 835.333,772.833 831.5,769C 809.899,755.699 787.566,743.699 764.5,733C 748.782,726.275 733.282,719.109 718,711.5C 717.536,712.094 717.369,712.761 717.5,713.5C 716.29,713.068 715.29,712.401 714.5,711.5C 694.442,701.211 673.942,690.544 653,679.5C 645.547,662.747 636.713,646.914 626.5,632C 632,626.5 637.5,621 643,615.5C 643.692,614.563 643.525,613.897 642.5,613.5C 672.935,578.965 693.102,538.965 703,493.5C 720.191,487.321 733.524,476.321 743,460.5C 762.192,426.826 767.192,391.159 758,353.5C 756.165,347.819 753.332,342.819 749.5,338.5C 747.351,336.254 744.684,334.754 741.5,334C 735.675,333.293 730.009,333.627 724.5,335C 730.263,301.587 735.763,268.087 741,234.5C 742.437,220.193 742.77,205.859 742,191.5C 740.623,184.081 737.623,177.415 733,171.5C 726.206,163.037 719.039,154.87 711.5,147C 714.215,145.092 717.215,143.759 720.5,143C 727.336,142.961 734.003,142.294 740.5,141C 728.447,128.48 714.781,118.147 699.5,110C 662.128,89.315 623.461,71.315 583.5,56C 517.759,34.2668 454.092,39.2668 392.5,71C 375.684,79.4754 360.851,90.6421 348,104.5C 345.186,107.96 343.02,111.793 341.5,116C 328.514,117.995 316.848,122.995 306.5,131C 293.229,142.257 283.062,155.757 276,171.5C 272.977,180.616 270.977,189.95 270,199.5C 268.591,225.971 269.924,252.305 274,278.5C 276.503,293.516 279.003,308.516 281.5,323.5C 275.311,323.035 269.311,323.702 263.5,325.5C 255.73,328.429 249.563,333.429 245,340.5C 234.647,359.927 230.98,380.594 234,402.5C 238.171,438.702 255.004,467.202 284.5,488C 297.947,496.625 312.28,498.625 327.5,494C 331.419,492.46 334.919,490.293 338,487.5C 343.399,506.031 349.399,524.364 356,542.5C 358.427,547.69 361.094,552.69 364,557.5C 365.012,572.484 365.512,587.484 365.5,602.5C 356.089,606.296 347.922,611.962 341,619.5C 336.435,629.071 331.602,638.405 326.5,647.5C 319.572,656.398 312.738,666.065 306,676.5C 304.864,679.096 304.031,681.763 303.5,684.5C 256.982,707.426 210.648,730.926 164.5,755C 160.334,757.917 156.001,760.584 151.5,763C 150.262,763.69 150.262,764.19 151.5,764.5C 124.882,781.323 106.048,804.656 95,834.5C 79.0928,876.46 66.7595,919.46 58,963.5C 54.0563,983.498 50.223,1003.5 46.5,1023.5C 30.8333,1023.5 15.1667,1023.5 -0.5,1023.5C -0.5,682.167 -0.5,340.833 -0.5,-0.5 Z"/></g>
<g><path style="opacity:1" fill="#150f0a" d="M 749.5,338.5 C 749.565,338.938 749.399,339.272 749,339.5C 747.2,337.683 745.034,336.516 742.5,336C 739.443,335.744 736.443,335.244 733.5,334.5C 728.344,336.75 723.177,337.75 718,337.5C 717.033,336.322 716.533,334.989 716.5,333.5C 715.28,334.711 714.113,334.711 713,333.5C 712.452,337.17 711.952,340.837 711.5,344.5C 710.3,367.84 709.133,391.174 708,414.5C 707.506,412.866 707.34,411.199 707.5,409.5C 708.372,390.848 708.705,372.182 708.5,353.5C 709.404,352.791 709.737,351.791 709.5,350.5C 710.368,339.82 711.368,329.153 712.5,318.5C 713.461,316.735 713.795,314.735 713.5,312.5C 714.619,295.863 715.285,279.197 715.5,262.5C 715.059,244.686 712.393,227.353 707.5,210.5C 703.602,194.025 695.602,180.025 683.5,168.5C 680.108,163.941 675.942,160.274 671,157.5C 668.865,158.127 666.698,158.627 664.5,159C 660.356,164.073 655.023,167.073 648.5,168C 636.923,170.051 625.256,170.885 613.5,170.5C 602.156,169.106 590.823,166.939 579.5,164C 554.849,155.117 530.516,145.45 506.5,135C 457.635,118.26 409.468,120.093 362,140.5C 361.106,149.898 359.772,159.232 358,168.5C 351.283,190.753 346.616,213.419 344,236.5C 343.173,251.006 343.339,265.339 344.5,279.5C 345.278,302.158 345.611,324.825 345.5,347.5C 344.667,359.377 343.5,371.377 342,383.5C 341.471,386.947 340.638,390.281 339.5,393.5C 338.903,393.265 338.57,392.765 338.5,392C 339.726,388.598 340.393,385.098 340.5,381.5C 339.5,381.5 338.5,381.5 337.5,381.5C 337.657,380.127 337.49,378.793 337,377.5C 336.53,380.072 335.697,381.739 334.5,382.5C 336.488,371.259 337.488,359.926 337.5,348.5C 337.983,338.175 338.316,327.842 338.5,317.5C 337.125,291.174 336.292,264.84 336,238.5C 338.148,214.762 343.481,191.762 352,169.5C 354.148,161.276 355.648,152.943 356.5,144.5C 356.933,141.613 358.267,139.113 360.5,137C 389.188,122.745 419.522,114.911 451.5,113.5C 475.499,114.75 498.499,120.25 520.5,130C 543.617,140.725 567.283,150.058 591.5,158C 609.259,162.268 627.259,163.602 645.5,162C 627.622,161.465 610.288,158.132 593.5,152C 567.91,140.21 543.91,125.877 521.5,109C 500.501,95.9068 477.834,90.4068 453.5,92.5C 429.147,95.2863 406.147,102.286 384.5,113.5C 377.853,116.362 377.187,115.529 382.5,111C 405.675,97.8908 430.342,89.7242 456.5,86.5C 480.746,83.9823 503.412,88.8157 524.5,101C 546.507,117.012 569.841,131.012 594.5,143C 624.65,155.322 654.983,155.655 685.5,144C 695.955,140.46 706.288,136.627 716.5,132.5C 677.636,108.568 636.969,88.0678 594.5,71C 545.252,50.9884 494.918,47.4884 443.5,60.5C 412.69,67.7375 385.357,81.5708 361.5,102C 355.458,108.373 349.792,115.04 344.5,122C 335.779,124.352 327.446,127.685 319.5,132C 316.06,134.042 313.06,136.542 310.5,139.5C 290.474,156.664 280.307,178.664 280,205.5C 279.237,219.526 279.571,233.526 281,247.5C 283.415,267.903 286.248,288.236 289.5,308.5C 289.307,312.449 288.807,312.449 288,308.5C 287.736,304.044 286.902,299.711 285.5,295.5C 283.295,294.626 281.462,295.292 280,297.5C 279.289,295.633 279.789,294.133 281.5,293C 280.552,292.517 279.552,292.351 278.5,292.5C 279.029,299.934 280.529,310.6 283,324.5C 277.22,325.232 271.387,325.899 265.5,326.5C 264.584,326.457 263.917,326.124 263.5,325.5C 269.311,323.702 275.311,323.035 281.5,323.5C 279.003,308.516 276.503,293.516 274,278.5C 269.924,252.305 268.591,225.971 270,199.5C 270.977,189.95 272.977,180.616 276,171.5C 283.062,155.757 293.229,142.257 306.5,131C 316.848,122.995 328.514,117.995 341.5,116C 343.02,111.793 345.186,107.96 348,104.5C 360.851,90.6421 375.684,79.4754 392.5,71C 454.092,39.2668 517.759,34.2668 583.5,56C 623.461,71.315 662.128,89.315 699.5,110C 714.781,118.147 728.447,128.48 740.5,141C 734.003,142.294 727.336,142.961 720.5,143C 717.215,143.759 714.215,145.092 711.5,147C 719.039,154.87 726.206,163.037 733,171.5C 737.623,177.415 740.623,184.081 742,191.5C 742.77,205.859 742.437,220.193 741,234.5C 735.763,268.087 730.263,301.587 724.5,335C 730.009,333.627 735.675,333.293 741.5,334C 744.684,334.754 747.351,336.254 749.5,338.5 Z"/></g>
<g><path style="opacity:1" fill="#704933" d="M 465.5,77.5 C 463.708,78.3091 461.708,78.8091 459.5,79C 461,79.1667 462.5,79.3333 464,79.5C 471.66,78.3155 479.16,78.3155 486.5,79.5C 485.898,81.6798 484.565,83.3464 482.5,84.5C 481.585,83.6721 480.919,82.6721 480.5,81.5C 481.167,81.1667 481.833,80.8333 482.5,80.5C 479.216,79.343 475.882,79.1764 472.5,80C 474.747,81.6548 477.08,81.9881 479.5,81C 478.672,81.9147 477.672,82.5814 476.5,83C 477.5,83.3333 478.5,83.6667 479.5,84C 470.797,84.2474 462.13,84.9141 453.5,86C 454.448,86.4828 455.448,86.6495 456.5,86.5C 430.342,89.7242 405.675,97.8908 382.5,111C 377.187,115.529 377.853,116.362 384.5,113.5C 385.738,113.81 385.738,114.31 384.5,115C 381.751,116.123 379.251,117.623 377,119.5C 375.221,117.983 375.721,117.149 378.5,117C 377.725,115.77 376.725,115.437 375.5,116C 372.469,118.064 370.136,120.731 368.5,124C 364.644,124.533 361.644,126.366 359.5,129.5C 360.609,130.965 360.109,131.965 358,132.5C 355.985,130.522 356.152,128.688 358.5,127C 358,126.5 357.5,126 357,125.5C 356.02,126.981 354.853,128.315 353.5,129.5C 352.304,129.154 352.304,128.654 353.5,128C 352.5,127.5 351.5,127 350.5,126.5C 349.289,127.274 349.289,128.107 350.5,129C 349.167,129.333 347.833,129.667 346.5,130C 350.082,130.595 350.416,131.929 347.5,134C 349.101,134.273 350.601,134.773 352,135.5C 353.617,134.464 353.784,133.297 352.5,132C 353.416,131.626 354.25,131.126 355,130.5C 355.667,132.167 355.667,133.833 355,135.5C 352.867,136.418 350.7,136.584 348.5,136C 350.525,137.194 350.859,138.694 349.5,140.5C 346.339,143.491 343.005,146.325 339.5,149C 338.551,149.617 337.718,149.451 337,148.5C 336.667,149.5 336.333,150.5 336,151.5C 335.667,151.167 335.333,150.833 335,150.5C 330.14,158.236 325.307,165.902 320.5,173.5C 320.167,173.5 319.833,173.5 319.5,173.5C 318.542,173.953 317.708,174.619 317,175.5C 315.495,171.337 313.995,170.67 312.5,173.5C 308.872,172.207 305.539,170.374 302.5,168C 303.449,167.383 304.282,167.549 305,168.5C 305.333,167.833 305.667,167.167 306,166.5C 306.866,170.807 307.866,171.14 309,167.5C 311.734,166.638 311.901,165.805 309.5,165C 310.448,164.517 311.448,164.351 312.5,164.5C 312.63,168.511 314.297,169.678 317.5,168C 316.874,167.25 316.374,166.416 316,165.5C 315.282,166.451 314.449,166.617 313.5,166C 315.193,164.653 316.86,164.153 318.5,164.5C 317.5,163.167 316.5,161.833 315.5,160.5C 315.089,161.262 314.923,162.262 315,163.5C 313.284,163.589 311.451,163.256 309.5,162.5C 308.808,163.025 308.308,163.692 308,164.5C 307.846,161.839 306.846,159.173 305,156.5C 304.346,157.696 303.846,157.696 303.5,156.5C 304.313,155.186 305.313,154.019 306.5,153C 305.069,152.535 303.903,151.701 303,150.5C 302.529,152.246 301.862,153.913 301,155.5C 300.36,148.032 302.86,147.032 308.5,152.5C 309.386,151.675 309.719,150.675 309.5,149.5C 307.645,149.728 306.812,149.061 307,147.5C 308.946,145.006 311.279,144.339 314,145.5C 314.374,144.584 314.874,143.75 315.5,143C 313.443,142.695 311.443,142.695 309.5,143C 310.337,141.989 310.67,140.822 310.5,139.5C 313.06,136.542 316.06,134.042 319.5,132C 327.446,127.685 335.779,124.352 344.5,122C 349.792,115.04 355.458,108.373 361.5,102C 385.357,81.5708 412.69,67.7375 443.5,60.5C 446.3,61.4481 449.133,61.1148 452,59.5C 452.5,60 453,60.5 453.5,61C 450.236,62.5776 449.736,64.7443 452,67.5C 452.915,66.6721 453.581,65.6721 454,64.5C 454.333,64.8333 454.667,65.1667 455,65.5C 454.968,67.5785 455.134,69.5785 455.5,71.5C 459.412,69.7123 459.412,70.5456 455.5,74C 457.108,74.658 458.275,74.158 459,72.5C 459.949,75.1997 461.783,76.033 464.5,75C 462.833,73.6667 461.167,72.3333 459.5,71C 463.173,69.703 466.673,68.8696 470,68.5C 470.167,68.8333 470.333,69.1667 470.5,69.5C 468.228,70.4853 465.895,71.3187 463.5,72C 464.759,72.9234 466.092,73.7568 467.5,74.5C 466.807,75.5178 466.141,76.5178 465.5,77.5 Z"/></g>
<g><path style="opacity:1" fill="#794f39" d="M 456.5,86.5 C 455.448,86.6495 454.448,86.4828 453.5,86C 462.13,84.9141 470.797,84.2474 479.5,84C 478.5,83.6667 477.5,83.3333 476.5,83C 477.672,82.5814 478.672,81.9147 479.5,81C 477.08,81.9881 474.747,81.6548 472.5,80C 475.882,79.1764 479.216,79.343 482.5,80.5C 481.833,80.8333 481.167,81.1667 480.5,81.5C 480.919,82.6721 481.585,83.6721 482.5,84.5C 484.565,83.3464 485.898,81.6798 486.5,79.5C 505.249,80.8832 523.582,84.3832 541.5,90C 560.08,98.7912 578.414,107.791 596.5,117C 615.465,126.126 635.465,130.126 656.5,129C 644.966,127.389 633.632,124.055 622.5,119C 606.181,110.842 590.181,102.175 574.5,93C 540.248,74.1197 503.915,68.9531 465.5,77.5C 466.141,76.5178 466.807,75.5178 467.5,74.5C 466.092,73.7568 464.759,72.9234 463.5,72C 465.895,71.3187 468.228,70.4853 470.5,69.5C 470.333,69.1667 470.167,68.8333 470,68.5C 466.673,68.8696 463.173,69.703 459.5,71C 461.167,72.3333 462.833,73.6667 464.5,75C 461.783,76.033 459.949,75.1997 459,72.5C 458.275,74.158 457.108,74.658 455.5,74C 459.412,70.5456 459.412,69.7123 455.5,71.5C 455.134,69.5785 454.968,67.5785 455,65.5C 454.667,65.1667 454.333,64.8333 454,64.5C 453.581,65.6721 452.915,66.6721 452,67.5C 449.736,64.7443 450.236,62.5776 453.5,61C 453,60.5 452.5,60 452,59.5C 449.133,61.1148 446.3,61.4481 443.5,60.5C 494.918,47.4884 545.252,50.9884 594.5,71C 636.969,88.0678 677.636,108.568 716.5,132.5C 706.288,136.627 695.955,140.46 685.5,144C 654.983,155.655 624.65,155.322 594.5,143C 569.841,131.012 546.507,117.012 524.5,101C 503.412,88.8157 480.746,83.9823 456.5,86.5 Z"/></g>
<g><path style="opacity:1" fill="#5f3e2b" d="M 453.5,92.5 C 460.531,92.5188 460.864,93.0188 454.5,94C 455.167,94.3333 455.833,94.6667 456.5,95C 456.906,96.8029 456.406,98.6362 455,100.5C 454,99.1667 453,99.1667 452,100.5C 451.517,99.552 451.351,98.552 451.5,97.5C 450.127,97.3433 448.793,97.51 447.5,98C 448.45,100.59 450.116,102.59 452.5,104C 451.004,104.507 449.837,104.007 449,102.5C 448.667,102.833 448.333,103.167 448,103.5C 447.692,102.692 447.192,102.025 446.5,101.5C 445.289,102.274 445.289,103.107 446.5,104C 445.365,104.749 444.365,104.583 443.5,103.5C 444.325,99.8488 443.659,99.6821 441.5,103C 443.531,105.464 446.198,106.797 449.5,107C 446.553,107.112 445.22,108.612 445.5,111.5C 444.448,111.351 443.448,111.517 442.5,112C 445.695,112.181 448.695,112.681 451.5,113.5C 419.522,114.911 389.188,122.745 360.5,137C 358.267,139.113 356.933,141.613 356.5,144.5C 356.607,142.621 356.107,142.288 355,143.5C 354.667,146.5 354.333,149.5 354,152.5C 353.25,151.874 352.416,151.374 351.5,151C 353.784,149.637 353.951,148.137 352,146.5C 349.337,148.334 346.837,150.334 344.5,152.5C 344.103,151.475 343.437,151.308 342.5,152C 335.251,159.418 327.917,166.584 320.5,173.5C 325.307,165.902 330.14,158.236 335,150.5C 335.333,150.833 335.667,151.167 336,151.5C 336.333,150.5 336.667,149.5 337,148.5C 337.718,149.451 338.551,149.617 339.5,149C 343.005,146.325 346.339,143.491 349.5,140.5C 350.859,138.694 350.525,137.194 348.5,136C 350.7,136.584 352.867,136.418 355,135.5C 355.667,133.833 355.667,132.167 355,130.5C 354.25,131.126 353.416,131.626 352.5,132C 353.784,133.297 353.617,134.464 352,135.5C 350.601,134.773 349.101,134.273 347.5,134C 350.416,131.929 350.082,130.595 346.5,130C 347.833,129.667 349.167,129.333 350.5,129C 349.289,128.107 349.289,127.274 350.5,126.5C 351.5,127 352.5,127.5 353.5,128C 352.304,128.654 352.304,129.154 353.5,129.5C 354.853,128.315 356.02,126.981 357,125.5C 357.5,126 358,126.5 358.5,127C 356.152,128.688 355.985,130.522 358,132.5C 360.109,131.965 360.609,130.965 359.5,129.5C 361.644,126.366 364.644,124.533 368.5,124C 370.136,120.731 372.469,118.064 375.5,116C 376.725,115.437 377.725,115.77 378.5,117C 375.721,117.149 375.221,117.983 377,119.5C 379.251,117.623 381.751,116.123 384.5,115C 385.738,114.31 385.738,113.81 384.5,113.5C 406.147,102.286 429.147,95.2863 453.5,92.5 Z"/></g>
<g><path style="opacity:1" fill="#563827" d="M 453.5,92.5 C 477.834,90.4068 500.501,95.9068 521.5,109C 543.91,125.877 567.91,140.21 593.5,152C 610.288,158.132 627.622,161.465 645.5,162C 627.259,163.602 609.259,162.268 591.5,158C 567.283,150.058 543.617,140.725 520.5,130C 498.499,120.25 475.499,114.75 451.5,113.5C 448.695,112.681 445.695,112.181 442.5,112C 443.448,111.517 444.448,111.351 445.5,111.5C 445.22,108.612 446.553,107.112 449.5,107C 446.198,106.797 443.531,105.464 441.5,103C 443.659,99.6821 444.325,99.8488 443.5,103.5C 444.365,104.583 445.365,104.749 446.5,104C 445.289,103.107 445.289,102.274 446.5,101.5C 447.192,102.025 447.692,102.692 448,103.5C 448.333,103.167 448.667,102.833 449,102.5C 449.837,104.007 451.004,104.507 452.5,104C 450.116,102.59 448.45,100.59 447.5,98C 448.793,97.51 450.127,97.3433 451.5,97.5C 451.351,98.552 451.517,99.552 452,100.5C 453,99.1667 454,99.1667 455,100.5C 456.406,98.6362 456.906,96.8029 456.5,95C 455.833,94.6667 455.167,94.3333 454.5,94C 460.864,93.0188 460.531,92.5188 453.5,92.5 Z"/></g>
<g><path style="opacity:1" fill="#40291c" d="M 486.5,79.5 C 479.16,78.3155 471.66,78.3155 464,79.5C 462.5,79.3333 461,79.1667 459.5,79C 461.708,78.8091 463.708,78.3091 465.5,77.5C 503.915,68.9531 540.248,74.1197 574.5,93C 590.181,102.175 606.181,110.842 622.5,119C 633.632,124.055 644.966,127.389 656.5,129C 635.465,130.126 615.465,126.126 596.5,117C 578.414,107.791 560.08,98.7912 541.5,90C 523.582,84.3832 505.249,80.8832 486.5,79.5 Z"/></g>
<g><path style="opacity:1" fill="#f5e4c4" d="M 683.5,168.5 C 680.101,166.612 677.101,164.112 674.5,161C 671.2,159.121 667.866,159.121 664.5,161C 660.077,166.259 654.411,169.259 647.5,170C 640.202,170.975 632.869,171.475 625.5,171.5C 620.099,171.577 616.099,171.244 613.5,170.5C 625.256,170.885 636.923,170.051 648.5,168C 655.023,167.073 660.356,164.073 664.5,159C 666.698,158.627 668.865,158.127 671,157.5C 675.942,160.274 680.108,163.941 683.5,168.5 Z"/></g>
<g><path style="opacity:1" fill="#6f4833" d="M 695.5,150.5 C 697.857,150.337 700.19,150.503 702.5,151C 717.057,161.544 726.89,175.378 732,192.5C 732.667,203.167 732.667,213.833 732,224.5C 729.054,247.561 725.721,270.561 722,293.5C 723.478,267.376 722.144,241.376 718,215.5C 713.234,190.763 701.068,170.596 681.5,155C 686.503,154.164 691.17,152.664 695.5,150.5 Z"/></g>
<g><path style="opacity:1" fill="#f6e5c5" d="M 683.5,168.5 C 695.602,180.025 703.602,194.025 707.5,210.5C 707.631,211.239 707.464,211.906 707,212.5C 702.523,195.871 694.69,181.204 683.5,168.5 Z"/></g>
<g><path style="opacity:1" fill="#744c36" d="M 310.5,139.5 C 310.67,140.822 310.337,141.989 309.5,143C 311.443,142.695 313.443,142.695 315.5,143C 314.874,143.75 314.374,144.584 314,145.5C 311.279,144.339 308.946,145.006 307,147.5C 306.812,149.061 307.645,149.728 309.5,149.5C 309.719,150.675 309.386,151.675 308.5,152.5C 302.86,147.032 300.36,148.032 301,155.5C 301.862,153.913 302.529,152.246 303,150.5C 303.903,151.701 305.069,152.535 306.5,153C 305.313,154.019 304.313,155.186 303.5,156.5C 303.846,157.696 304.346,157.696 305,156.5C 306.846,159.173 307.846,161.839 308,164.5C 308.308,163.692 308.808,163.025 309.5,162.5C 311.451,163.256 313.284,163.589 315,163.5C 314.923,162.262 315.089,161.262 315.5,160.5C 316.5,161.833 317.5,163.167 318.5,164.5C 316.86,164.153 315.193,164.653 313.5,166C 314.449,166.617 315.282,166.451 316,165.5C 316.374,166.416 316.874,167.25 317.5,168C 314.297,169.678 312.63,168.511 312.5,164.5C 311.448,164.351 310.448,164.517 309.5,165C 311.901,165.805 311.734,166.638 309,167.5C 307.866,171.14 306.866,170.807 306,166.5C 305.667,167.167 305.333,167.833 305,168.5C 304.282,167.549 303.449,167.383 302.5,168C 305.539,170.374 308.872,172.207 312.5,173.5C 313.995,170.67 315.495,171.337 317,175.5C 317.708,174.619 318.542,173.953 319.5,173.5C 307.894,199.135 303.394,226.135 306,254.5C 310.289,230.343 316.289,206.677 324,183.5C 328.858,171.762 335.692,161.429 344.5,152.5C 346.837,150.334 349.337,148.334 352,146.5C 353.951,148.137 353.784,149.637 351.5,151C 352.416,151.374 353.25,151.874 354,152.5C 354.333,149.5 354.667,146.5 355,143.5C 356.107,142.288 356.607,142.621 356.5,144.5C 355.648,152.943 354.148,161.276 352,169.5C 343.481,191.762 338.148,214.762 336,238.5C 336.292,264.84 337.125,291.174 338.5,317.5C 338.316,327.842 337.983,338.175 337.5,348.5C 336.674,344.018 336.174,339.351 336,334.5C 335.653,338.116 334.486,338.783 332.5,336.5C 330.472,339.597 328.305,339.93 326,337.5C 325.517,338.448 325.351,339.448 325.5,340.5C 328.957,340.667 329.29,341.667 326.5,343.5C 325.962,342.182 325.129,340.516 324,338.5C 323.667,339.5 323.333,340.5 323,341.5C 322.722,340.584 322.222,339.918 321.5,339.5C 321.333,317.831 321.5,296.164 322,274.5C 322.681,267.785 323.348,261.119 324,254.5C 319.61,267.167 316.777,280.167 315.5,293.5C 314.61,296.877 312.943,299.877 310.5,302.5C 310.331,301.603 309.998,300.603 309.5,299.5C 308.757,300.908 307.923,302.241 307,303.5C 305.086,302.324 305.252,301.324 307.5,300.5C 305.653,299.17 304.153,299.503 303,301.5C 302.55,298.936 303.716,297.436 306.5,297C 305.667,296.167 304.833,295.333 304,294.5C 302.921,296.394 301.587,296.727 300,295.5C 299.167,297 298,298.167 296.5,299C 297.292,301.336 298.625,301.836 300.5,300.5C 301.833,301.833 301.833,303.167 300.5,304.5C 299.914,304.291 299.414,303.957 299,303.5C 297,306.167 295,306.167 293,303.5C 292.004,306.909 291.171,310.242 290.5,313.5C 290.784,311.585 290.451,309.919 289.5,308.5C 286.248,288.236 283.415,267.903 281,247.5C 279.571,233.526 279.237,219.526 280,205.5C 280.307,178.664 290.474,156.664 310.5,139.5 Z"/></g>
<g><path style="opacity:1" fill="#3e271b" d="M 344.5,152.5 C 335.692,161.429 328.858,171.762 324,183.5C 316.289,206.677 310.289,230.343 306,254.5C 303.394,226.135 307.894,199.135 319.5,173.5C 319.833,173.5 320.167,173.5 320.5,173.5C 327.917,166.584 335.251,159.418 342.5,152C 343.437,151.308 344.103,151.475 344.5,152.5 Z"/></g>
<g><path style="opacity:1" fill="#f3e2c2" d="M 715.5,262.5 C 715.285,279.197 714.619,295.863 713.5,312.5C 712.835,309.518 712.502,306.352 712.5,303C 713.133,289.318 714.133,275.818 715.5,262.5 Z"/></g>
<g><path style="opacity:1" fill="#fcf3d1" d="M 345.5,347.5 C 345.611,324.825 345.278,302.158 344.5,279.5C 344.338,277.473 344.505,275.473 345,273.5C 346.015,289.481 346.515,305.481 346.5,321.5C 346.666,334.869 346.332,343.536 345.5,347.5 Z"/></g>
<g><path style="opacity:1" fill="#3e281c" d="M 321.5,339.5 C 319.26,335.078 317.76,329.744 317,323.5C 315.744,313.541 315.244,303.541 315.5,293.5C 316.777,280.167 319.61,267.167 324,254.5C 323.348,261.119 322.681,267.785 322,274.5C 321.5,296.164 321.333,317.831 321.5,339.5 Z"/></g>
<g><path style="opacity:1" fill="#fcf0cc" d="M 712.5,318.5 C 711.368,329.153 710.368,339.82 709.5,350.5C 708.355,346.689 708.188,342.689 709,338.5C 710.187,330.189 711.187,321.855 712,313.5C 712.494,315.134 712.66,316.801 712.5,318.5 Z"/></g>
<g><path style="opacity:1" fill="#694430" d="M 315.5,293.5 C 315.244,303.541 315.744,313.541 317,323.5C 317.76,329.744 319.26,335.078 321.5,339.5C 322.222,339.918 322.722,340.584 323,341.5C 323.333,340.5 323.667,339.5 324,338.5C 325.129,340.516 325.962,342.182 326.5,343.5C 329.29,341.667 328.957,340.667 325.5,340.5C 325.351,339.448 325.517,338.448 326,337.5C 328.305,339.93 330.472,339.597 332.5,336.5C 334.486,338.783 335.653,338.116 336,334.5C 336.174,339.351 336.674,344.018 337.5,348.5C 337.488,359.926 336.488,371.259 334.5,382.5C 330.842,376.757 328.009,370.423 326,363.5C 319.508,347.342 308.508,335.342 293,327.5C 291.839,322.902 291.006,318.235 290.5,313.5C 291.171,310.242 292.004,306.909 293,303.5C 295,306.167 297,306.167 299,303.5C 299.414,303.957 299.914,304.291 300.5,304.5C 301.833,303.167 301.833,301.833 300.5,300.5C 298.625,301.836 297.292,301.336 296.5,299C 298,298.167 299.167,297 300,295.5C 301.587,296.727 302.921,296.394 304,294.5C 304.833,295.333 305.667,296.167 306.5,297C 303.716,297.436 302.55,298.936 303,301.5C 304.153,299.503 305.653,299.17 307.5,300.5C 305.252,301.324 305.086,302.324 307,303.5C 307.923,302.241 308.757,300.908 309.5,299.5C 309.998,300.603 310.331,301.603 310.5,302.5C 312.943,299.877 314.61,296.877 315.5,293.5 Z"/></g>
<g><path style="opacity:1" fill="#261a13" d="M 711.5,344.5 C 712.166,348.353 712.833,352.353 713.5,356.5C 714.354,357.522 715.354,358.355 716.5,359C 714.567,359.783 713.067,359.283 712,357.5C 711.333,360.167 711.333,362.833 712,365.5C 713.333,364.833 714.667,364.167 716,363.5C 716.667,366.5 716.667,369.5 716,372.5C 715.667,370.833 715.333,369.167 715,367.5C 714.801,369.402 713.967,370.902 712.5,372C 713.126,372.75 713.626,373.584 714,374.5C 714.333,374.167 714.667,373.833 715,373.5C 715.777,378.222 715.61,382.889 714.5,387.5C 714.97,388.463 715.637,388.463 716.5,387.5C 720.818,380.62 726.152,373.787 732.5,367C 733.745,366.209 735.078,365.709 736.5,365.5C 738.483,365.157 739.817,365.824 740.5,367.5C 729.853,377.429 722.186,389.429 717.5,403.5C 717.043,404.298 716.376,404.631 715.5,404.5C 714.778,404.918 714.278,405.584 714,406.5C 713.667,411.833 713.333,417.167 713,422.5C 712.667,420.167 712.333,417.833 712,415.5C 710.556,417.155 708.722,417.822 706.5,417.5C 706.194,414.615 706.527,411.948 707.5,409.5C 707.34,411.199 707.506,412.866 708,414.5C 709.133,391.174 710.3,367.84 711.5,344.5 Z"/></g>
<g><path style="opacity:1" fill="#f4e0be" d="M 708.5,353.5 C 708.705,372.182 708.372,390.848 707.5,409.5C 706.527,411.948 706.194,414.615 706.5,417.5C 705.701,420.43 705.368,423.43 705.5,426.5C 704.84,425.036 704.507,423.369 704.5,421.5C 705.698,398.097 707.032,375.431 708.5,353.5 Z"/></g>
<g><path style="opacity:1" fill="#fadab5" d="M 244.5,367.5 C 245.147,368.274 245.48,369.274 245.5,370.5C 242.927,381.84 242.927,393.173 245.5,404.5C 246.167,404.167 246.833,403.833 247.5,403.5C 249.009,405.424 251.009,406.591 253.5,407C 252.328,407.419 251.328,408.085 250.5,409C 251.051,410.398 251.384,411.732 251.5,413C 249.924,412.848 248.591,412.015 247.5,410.5C 246.908,415.069 247.575,419.569 249.5,424C 249.43,424.765 249.097,425.265 248.5,425.5C 242.257,406.506 240.923,387.173 244.5,367.5 Z"/></g>
<g><path style="opacity:1" fill="#fac09b" d="M 753.5,378.5 C 753.666,385.841 753.5,393.174 753,400.5C 752.728,405.076 751.895,409.409 750.5,413.5C 750.631,412.761 750.464,412.094 750,411.5C 747.929,421.787 744.929,431.787 741,441.5C 739.311,445.56 737.144,449.227 734.5,452.5C 734.714,450.856 734.38,449.356 733.5,448C 736.279,447.851 736.779,447.017 735,445.5C 732.984,446.955 732.151,448.955 732.5,451.5C 729.402,451.587 729.068,451.087 731.5,450C 729.888,449.28 728.388,449.446 727,450.5C 726.25,449.874 725.416,449.374 724.5,449C 731.761,449.116 733.428,446.45 729.5,441C 732.383,441.795 733.883,440.629 734,437.5C 733.586,437.957 733.086,438.291 732.5,438.5C 731.646,437.478 730.646,436.645 729.5,436C 729.833,435.667 730.167,435.333 730.5,435C 727.845,436.26 726.012,435.426 725,432.5C 723.992,432.982 722.825,433.148 721.5,433C 722.167,433.667 722.833,434.333 723.5,435C 721.671,435.273 720.171,436.107 719,437.5C 718.781,436.062 718.281,434.729 717.5,433.5C 716.914,433.709 716.414,434.043 716,434.5C 715.836,424.794 716.503,415.128 718,405.5C 718.419,404.328 719.085,403.328 720,402.5C 721.797,403.999 723.631,405.499 725.5,407C 724.197,407.21 722.864,407.043 721.5,406.5C 717.622,408.401 717.622,410.234 721.5,412C 719.842,412.725 719.342,413.892 720,415.5C 720.324,413.431 721.158,413.098 722.5,414.5C 722.835,413.336 722.835,412.003 722.5,410.5C 725.555,409.695 727.222,407.695 727.5,404.5C 726.619,403.029 725.286,402.196 723.5,402C 724.448,401.517 725.448,401.351 726.5,401.5C 726.587,398.402 726.087,398.068 725,400.5C 723.312,399.675 723.145,398.675 724.5,397.5C 722.96,396.468 722.46,395.135 723,393.5C 727.172,383.472 733.506,375.139 742,368.5C 742.605,366.365 742.105,366.031 740.5,367.5C 739.817,365.824 738.483,365.157 736.5,365.5C 739.061,364.169 741.561,364.502 744,366.5C 744.317,364.699 744.984,364.366 746,365.5C 746.667,362.833 747.333,362.833 748,365.5C 748.308,364.692 748.808,364.025 749.5,363.5C 750.95,368.041 751.783,372.708 752,377.5C 752.383,378.056 752.883,378.389 753.5,378.5 Z"/></g>
<g><path style="opacity:1" fill="#facca7" d="M 734.5,452.5 C 733.646,454.035 733.646,455.368 734.5,456.5C 727.45,467.383 718.283,476.049 707,482.5C 709.076,468.232 711.076,453.899 713,439.5C 714.331,427.865 715.164,416.198 715.5,404.5C 716.376,404.631 717.043,404.298 717.5,403.5C 722.186,389.429 729.853,377.429 740.5,367.5C 742.105,366.031 742.605,366.365 742,368.5C 733.506,375.139 727.172,383.472 723,393.5C 722.46,395.135 722.96,396.468 724.5,397.5C 723.145,398.675 723.312,399.675 725,400.5C 726.087,398.068 726.587,398.402 726.5,401.5C 725.448,401.351 724.448,401.517 723.5,402C 725.286,402.196 726.619,403.029 727.5,404.5C 727.222,407.695 725.555,409.695 722.5,410.5C 722.835,412.003 722.835,413.336 722.5,414.5C 721.158,413.098 720.324,413.431 720,415.5C 719.342,413.892 719.842,412.725 721.5,412C 717.622,410.234 717.622,408.401 721.5,406.5C 722.864,407.043 724.197,407.21 725.5,407C 723.631,405.499 721.797,403.999 720,402.5C 719.085,403.328 718.419,404.328 718,405.5C 716.503,415.128 715.836,424.794 716,434.5C 716.414,434.043 716.914,433.709 717.5,433.5C 718.281,434.729 718.781,436.062 719,437.5C 720.171,436.107 721.671,435.273 723.5,435C 722.833,434.333 722.167,433.667 721.5,433C 722.825,433.148 723.992,432.982 725,432.5C 726.012,435.426 727.845,436.26 730.5,435C 730.167,435.333 729.833,435.667 729.5,436C 730.646,436.645 731.646,437.478 732.5,438.5C 733.086,438.291 733.586,437.957 734,437.5C 733.883,440.629 732.383,441.795 729.5,441C 733.428,446.45 731.761,449.116 724.5,449C 725.416,449.374 726.25,449.874 727,450.5C 728.388,449.446 729.888,449.28 731.5,450C 729.068,451.087 729.402,451.587 732.5,451.5C 732.151,448.955 732.984,446.955 735,445.5C 736.779,447.017 736.279,447.851 733.5,448C 734.38,449.356 734.714,450.856 734.5,452.5 Z"/></g>
<g><path style="opacity:1" fill="#fdcca5" d="M 613.5,170.5 C 616.099,171.244 620.099,171.577 625.5,171.5C 632.869,171.475 640.202,170.975 647.5,170C 654.411,169.259 660.077,166.259 664.5,161C 667.866,159.121 671.2,159.121 674.5,161C 677.101,164.112 680.101,166.612 683.5,168.5C 694.69,181.204 702.523,195.871 707,212.5C 707.464,211.906 707.631,211.239 707.5,210.5C 712.393,227.353 715.059,244.686 715.5,262.5C 714.133,275.818 713.133,289.318 712.5,303C 712.502,306.352 712.835,309.518 713.5,312.5C 713.795,314.735 713.461,316.735 712.5,318.5C 712.66,316.801 712.494,315.134 712,313.5C 711.187,321.855 710.187,330.189 709,338.5C 708.188,342.689 708.355,346.689 709.5,350.5C 709.737,351.791 709.404,352.791 708.5,353.5C 707.032,375.431 705.698,398.097 704.5,421.5C 704.507,423.369 704.84,425.036 705.5,426.5C 702.833,459.891 695.833,492.225 684.5,523.5C 676.516,541.06 667.516,558.727 657.5,576.5C 649.391,590.286 639.725,602.952 628.5,614.5C 620.644,624.366 611.311,632.366 600.5,638.5C 588.557,645.427 575.724,650.094 562,652.5C 560.624,652.684 559.791,653.351 559.5,654.5C 533.983,657.08 509.65,653.08 486.5,642.5C 476.232,637.175 465.565,631.342 454.5,625C 438.71,614.364 423.376,603.197 408.5,591.5C 394.247,580.922 382.914,567.922 374.5,552.5C 367.293,536.387 360.626,520.72 354.5,505.5C 350.61,494 346.61,482.5 342.5,471C 341.167,470.333 339.833,470.333 338.5,471C 328.456,485.125 315.123,489.458 298.5,484C 280.831,475.998 267.331,463.498 258,446.5C 254.273,439.716 251.106,432.716 248.5,425.5C 249.097,425.265 249.43,424.765 249.5,424C 247.575,419.569 246.908,415.069 247.5,410.5C 248.591,412.015 249.924,412.848 251.5,413C 251.384,411.732 251.051,410.398 250.5,409C 251.328,408.085 252.328,407.419 253.5,407C 251.009,406.591 249.009,405.424 247.5,403.5C 246.833,403.833 246.167,404.167 245.5,404.5C 242.927,393.173 242.927,381.84 245.5,370.5C 245.48,369.274 245.147,368.274 244.5,367.5C 244.263,366.209 244.596,365.209 245.5,364.5C 245.369,365.239 245.536,365.906 246,366.5C 248.472,353.056 254.972,343.056 265.5,336.5C 268.695,334.97 272.195,334.304 276,334.5C 279.805,334.304 283.305,334.97 286.5,336.5C 298.356,342.833 308.189,352.166 316,364.5C 319.343,372.611 322.843,379.945 326.5,386.5C 327.86,390.043 329.526,393.543 331.5,397C 335.246,398.222 337.913,397.056 339.5,393.5C 340.638,390.281 341.471,386.947 342,383.5C 343.5,371.377 344.667,359.377 345.5,347.5C 346.332,343.536 346.666,334.869 346.5,321.5C 346.515,305.481 346.015,289.481 345,273.5C 344.505,275.473 344.338,277.473 344.5,279.5C 343.339,265.339 343.173,251.006 344,236.5C 346.616,213.419 351.283,190.753 358,168.5C 359.772,159.232 361.106,149.898 362,140.5C 409.468,120.093 457.635,118.26 506.5,135C 530.516,145.45 554.849,155.117 579.5,164C 590.823,166.939 602.156,169.106 613.5,170.5 Z"/></g>
<g><path style="opacity:1" fill="#251813" d="M 635.5,488.5 C 640.49,489.992 643.657,493.326 645,498.5C 645.758,500.769 645.591,502.936 644.5,505C 643.551,505.617 642.718,505.451 642,504.5C 640.278,499.388 637.778,494.721 634.5,490.5C 634.863,489.817 635.196,489.15 635.5,488.5 Z"/></g>
<g><path style="opacity:1" fill="#fadbb6" d="M 511.5,474.5 C 524.857,485.017 540.19,490.017 557.5,489.5C 562.514,489.277 567.514,488.944 572.5,488.5C 573.239,488.369 573.906,488.536 574.5,489C 563.361,490.768 552.195,490.935 541,489.5C 539.373,489.625 537.873,490.125 536.5,491C 537.167,491.333 537.833,491.667 538.5,492C 536.842,492.725 536.342,493.892 537,495.5C 538.84,494.167 539.34,494.334 538.5,496C 536.833,496.667 535.167,496.667 533.5,496C 534.34,494.334 533.84,494.167 532,495.5C 531.087,492.648 531.92,490.481 534.5,489C 527.554,486.194 520.888,482.861 514.5,479C 512.859,477.871 511.859,476.371 511.5,474.5 Z"/></g>
<g><path style="opacity:1" fill="#f5debc" d="M 449.5,488.5 C 445.737,487.299 442.07,485.799 438.5,484C 444.725,479.72 451.391,476.22 458.5,473.5C 459.386,472.675 459.719,471.675 459.5,470.5C 456.5,470.5 453.5,470.5 450.5,470.5C 451.191,469.206 452.857,468.539 455.5,468.5C 458.327,468.408 460.327,469.575 461.5,472C 461.355,472.772 461.022,473.439 460.5,474C 453.724,476.554 447.391,479.887 441.5,484C 445.168,484.959 447.835,486.459 449.5,488.5 Z"/></g>
<g><path style="opacity:1" fill="#291b15" d="M 516.5,447.5 C 515.559,444.875 514.393,444.875 513,447.5C 509.139,454.494 508.472,461.827 511,469.5C 512.23,472.732 514.23,475.399 517,477.5C 517.249,476.376 517.749,475.376 518.5,474.5C 519.396,475.506 520.062,475.506 520.5,474.5C 517.756,472.016 515.756,469.016 514.5,465.5C 514.624,464.893 514.957,464.56 515.5,464.5C 517.998,470.996 522.665,474.996 529.5,476.5C 541.005,480.747 553.005,482.414 565.5,481.5C 558.851,482.631 550.184,482.798 539.5,482C 539.616,483.268 539.949,484.602 540.5,486C 553.558,488.157 566.558,487.824 579.5,485C 582.785,484.241 585.785,482.908 588.5,481C 586.797,480.255 585.13,479.421 583.5,478.5C 579.885,479.705 576.218,480.705 572.5,481.5C 571.274,481.48 570.274,481.147 569.5,480.5C 577.106,479.944 583.773,477.277 589.5,472.5C 591.167,471.167 592.833,469.833 594.5,468.5C 593.04,470.424 593.374,472.091 595.5,473.5C 597.195,472.826 598.862,472.159 600.5,471.5C 598.237,475.103 595.57,478.436 592.5,481.5C 585.883,484.26 579.216,486.593 572.5,488.5C 567.514,488.944 562.514,489.277 557.5,489.5C 540.19,490.017 524.857,485.017 511.5,474.5C 506.536,465.552 506.369,456.552 511,447.5C 512.351,445.981 513.851,444.648 515.5,443.5C 516.429,444.689 516.762,446.022 516.5,447.5 Z"/></g>
<g><path style="opacity:1" fill="#39271d" d="M 565.5,481.5 C 566.568,480.566 567.901,480.232 569.5,480.5C 570.274,481.147 571.274,481.48 572.5,481.5C 576.218,480.705 579.885,479.705 583.5,478.5C 585.13,479.421 586.797,480.255 588.5,481C 585.785,482.908 582.785,484.241 579.5,485C 566.558,487.824 553.558,488.157 540.5,486C 539.949,484.602 539.616,483.268 539.5,482C 550.184,482.798 558.851,482.631 565.5,481.5 Z"/></g>
<g><path style="opacity:1" fill="#f0ae89" d="M 589.5,472.5 C 583.773,477.277 577.106,479.944 569.5,480.5C 567.901,480.232 566.568,480.566 565.5,481.5C 553.005,482.414 541.005,480.747 529.5,476.5C 530.239,476.631 530.906,476.464 531.5,476C 526.876,474.69 522.876,472.356 519.5,469C 535.306,473.596 551.306,475.262 567.5,474C 575.967,472.111 584.3,470.111 592.5,468C 591.167,469.333 589.833,470.667 588.5,472C 588.728,472.399 589.062,472.565 589.5,472.5 Z"/></g>
<g><path style="opacity:1" fill="#34231a" d="M 516.5,447.5 C 514.267,453.041 513.933,458.707 515.5,464.5C 514.957,464.56 514.624,464.893 514.5,465.5C 515.756,469.016 517.756,472.016 520.5,474.5C 520.062,475.506 519.396,475.506 518.5,474.5C 517.749,475.376 517.249,476.376 517,477.5C 514.23,475.399 512.23,472.732 511,469.5C 508.472,461.827 509.139,454.494 513,447.5C 514.393,444.875 515.559,444.875 516.5,447.5 Z"/></g>
<g><path style="opacity:1" fill="#312018" d="M 572.5,361.5 C 573.398,369.864 575.065,378.197 577.5,386.5C 578.265,389.67 579.265,392.67 580.5,395.5C 585.66,409.486 592.16,422.819 600,435.5C 601.944,439.723 603.611,444.056 605,448.5C 606.612,456.936 605.112,464.603 600.5,471.5C 598.862,472.159 597.195,472.826 595.5,473.5C 593.374,472.091 593.04,470.424 594.5,468.5C 598.447,459.514 598.447,450.514 594.5,441.5C 594.938,441.565 595.272,441.399 595.5,441C 594.139,439.416 593.472,437.582 593.5,435.5C 594.552,435.649 595.552,435.483 596.5,435C 594.945,433.354 593.279,433.021 591.5,434C 579.424,415.949 571.757,396.116 568.5,374.5C 568.667,373.167 568.833,371.833 569,370.5C 569.186,372.9 569.686,375.234 570.5,377.5C 571.454,374.888 571.454,372.221 570.5,369.5C 571.664,366.933 572.33,364.266 572.5,361.5 Z"/></g>
<g><path style="opacity:1" fill="#fbc49e" d="M 290.5,440.5 C 292.315,446.814 296.315,450.981 302.5,453C 301.711,456.097 300.544,456.264 299,453.5C 298.667,453.833 298.333,454.167 298,454.5C 297.581,453.328 296.915,452.328 296,451.5C 294.75,452.573 293.416,452.573 292,451.5C 290.902,452.384 290.402,453.384 290.5,454.5C 289.719,453.271 289.219,451.938 289,450.5C 288.333,451.833 287.667,451.833 287,450.5C 287.855,452.615 288.355,454.948 288.5,457.5C 285.001,457.741 284.668,456.908 287.5,455C 285.639,453.138 284.306,453.638 283.5,456.5C 282.549,455.674 281.549,455.508 280.5,456C 281.451,456.718 281.617,457.551 281,458.5C 279.542,457.253 278.042,457.253 276.5,458.5C 275.318,456.355 273.818,456.355 272,458.5C 271.431,455.597 269.765,453.597 267,452.5C 266.717,455.742 265.883,456.076 264.5,453.5C 265.381,452.029 266.714,451.196 268.5,451C 266.893,449.951 266.227,448.451 266.5,446.5C 264.176,446.338 262.509,445.172 261.5,443C 262.956,442.577 263.456,441.744 263,440.5C 261.601,441.227 260.101,441.727 258.5,442C 259.451,442.718 259.617,443.551 259,444.5C 255.851,440.215 253.851,435.549 253,430.5C 253.748,432.332 254.748,433.999 256,435.5C 255.762,432.938 256.762,430.604 259,428.5C 259.308,429.308 259.808,429.975 260.5,430.5C 263.263,427.768 262.93,425.768 259.5,424.5C 258.522,424.977 257.689,425.643 257,426.5C 254.969,423.529 253.136,420.363 251.5,417C 252.448,416.517 253.448,416.351 254.5,416.5C 254.351,417.552 254.517,418.552 255,419.5C 255.273,417.671 256.107,416.171 257.5,415C 257.167,412.667 256.833,410.333 256.5,408C 258.26,405.517 260.427,405.017 263,406.5C 263.667,405.5 263.667,404.5 263,403.5C 262,404.833 261,404.833 260,403.5C 257.019,406.275 255.853,405.775 256.5,402C 254.709,401.585 253.376,400.585 252.5,399C 253.744,398.544 254.577,399.044 255,400.5C 256.852,398.77 256.686,397.604 254.5,397C 258.14,395.866 257.807,394.866 253.5,394C 256.193,393.121 257.86,391.288 258.5,388.5C 259.167,388.5 259.5,388.167 259.5,387.5C 261.202,381.033 263.369,374.699 266,368.5C 273.621,365.288 280.788,366.122 287.5,371C 294.002,377.839 299.336,385.505 303.5,394C 288.451,400.6 282.784,412.1 286.5,428.5C 287.636,432.575 288.969,436.575 290.5,440.5 Z"/></g>
<g><path style="opacity:1" fill="#f5e4c2" d="M 592.5,481.5 C 595.57,478.436 598.237,475.103 600.5,471.5C 605.112,464.603 606.612,456.936 605,448.5C 603.611,444.056 601.944,439.723 600,435.5C 592.16,422.819 585.66,409.486 580.5,395.5C 586.878,408.897 594.045,422.564 602,436.5C 607.109,447.236 607.775,458.236 604,469.5C 601.287,474.71 597.454,478.71 592.5,481.5 Z"/></g>
<g><path style="opacity:1" fill="#312018" d="M 282.5,359.5 C 293.864,365.7 302.364,374.7 308,386.5C 316.001,400.496 320.334,415.496 321,431.5C 320.107,432.711 319.274,432.711 318.5,431.5C 314.391,422.323 310.391,413.157 306.5,404C 301.042,403.149 297.209,405.315 295,410.5C 293.139,418.137 293.139,425.804 295,433.5C 297.588,438.842 299.755,444.342 301.5,450C 301.15,451.257 300.483,451.591 299.5,451C 296.601,447.335 293.601,443.835 290.5,440.5C 288.969,436.575 287.636,432.575 286.5,428.5C 282.784,412.1 288.451,400.6 303.5,394C 299.336,385.505 294.002,377.839 287.5,371C 280.788,366.122 273.621,365.288 266,368.5C 263.369,374.699 261.202,381.033 259.5,387.5C 258.504,387.586 257.671,387.252 257,386.5C 256.274,378.797 257.607,371.463 261,364.5C 267.24,358.982 274.407,357.315 282.5,359.5 Z"/></g>
<g><path style="opacity:1" fill="#fdf2e2" d="M 591.5,394.5 C 586.447,385.572 584.447,375.905 585.5,365.5C 587.266,350.231 594.599,338.397 607.5,330C 629.715,318.719 649.549,321.886 667,339.5C 678.546,358.69 678.212,377.69 666,396.5C 652.406,409.695 636.239,414.195 617.5,410C 607.02,407.605 598.354,402.438 591.5,394.5 Z"/></g>
<g><path style="opacity:1" fill="#f8d9b5" d="M 573.5,345.5 C 574.328,351.319 574.828,357.319 575,363.5C 575.315,366.147 576.482,366.813 578.5,365.5C 579.167,366.5 579.833,367.5 580.5,368.5C 581.806,363.248 582.639,357.914 583,352.5C 583.124,349.749 583.957,348.082 585.5,347.5C 583.781,355.381 583.114,363.381 583.5,371.5C 583.565,371.938 583.399,372.272 583,372.5C 580.471,371.116 578.138,369.449 576,367.5C 575.192,369.579 575.359,371.579 576.5,373.5C 578.243,371.276 579.576,371.776 580.5,375C 580.333,375.5 580.167,376 580,376.5C 579.29,375.027 578.124,374.36 576.5,374.5C 576.607,378.098 577.274,381.598 578.5,385C 578.43,385.765 578.097,386.265 577.5,386.5C 575.065,378.197 573.398,369.864 572.5,361.5C 572.569,356.146 572.902,350.813 573.5,345.5 Z"/></g>
<g><path style="opacity:1" fill="#1c130d" d="M 617.5,343.5 C 632.136,342.286 640.969,348.953 644,363.5C 645.429,374.884 641.929,384.384 633.5,392C 618.288,397.176 608.121,392.01 603,376.5C 600.206,364.952 603.039,355.119 611.5,347C 613.727,346.059 615.727,344.892 617.5,343.5 Z"/></g>
<g><path style="opacity:1" fill="#231712" d="M 573.5,345.5 C 572.902,350.813 572.569,356.146 572.5,361.5C 572.33,364.266 571.664,366.933 570.5,369.5C 571.454,372.221 571.454,374.888 570.5,377.5C 569.686,375.234 569.186,372.9 569,370.5C 568.833,371.833 568.667,373.167 568.5,374.5C 571.757,396.116 579.424,415.949 591.5,434C 593.279,433.021 594.945,433.354 596.5,435C 595.552,435.483 594.552,435.649 593.5,435.5C 593.472,437.582 594.139,439.416 595.5,441C 595.272,441.399 594.938,441.565 594.5,441.5C 582.844,424.406 574.344,405.74 569,385.5C 566.03,370.239 565.697,354.906 568,339.5C 569.164,332.852 571.664,326.852 575.5,321.5C 575.833,322.667 576.167,323.833 576.5,325C 575.335,331.819 574.335,338.653 573.5,345.5 Z"/></g>
<g><path style="opacity:1" fill="#fdf2e3" d="M 505.5,375.5 C 504.43,383.309 501.43,390.309 496.5,396.5C 481.962,408.395 465.295,412.895 446.5,410C 423.43,404.585 411.43,389.918 410.5,366C 412.316,341.184 425.316,325.85 449.5,320C 477.187,316.747 495.354,328.247 504,354.5C 505.23,361.445 505.73,368.445 505.5,375.5 Z"/></g>
<g><path style="opacity:1" fill="#1a120c" d="M 449.5,340.5 C 465.081,339.247 474.581,346.247 478,361.5C 479.051,373.365 475.217,383.198 466.5,391C 449.375,396.854 438.541,391.021 434,373.5C 431.244,358.537 436.41,347.537 449.5,340.5 Z"/></g>
<g><path style="opacity:1" fill="#20160f" d="M 591.5,394.5 C 598.354,402.438 607.02,407.605 617.5,410C 636.239,414.195 652.406,409.695 666,396.5C 678.212,377.69 678.546,358.69 667,339.5C 649.549,321.886 629.715,318.719 607.5,330C 594.599,338.397 587.266,350.231 585.5,365.5C 584.833,367.5 584.167,369.5 583.5,371.5C 583.114,363.381 583.781,355.381 585.5,347.5C 596.079,323.035 614.745,312.202 641.5,315C 665.272,321.101 678.772,336.268 682,360.5C 682.844,395.154 666.011,413.821 631.5,416.5C 616.448,416.39 603.948,410.723 594,399.5C 592.906,397.922 592.072,396.255 591.5,394.5 Z"/></g>
<g><path style="opacity:1" fill="#1f150f" d="M 505.5,375.5 C 505.73,368.445 505.23,361.445 504,354.5C 495.354,328.247 477.187,316.747 449.5,320C 425.316,325.85 412.316,341.184 410.5,366C 411.43,389.918 423.43,404.585 446.5,410C 465.295,412.895 481.962,408.395 496.5,396.5C 488.963,407.159 478.63,413.659 465.5,416C 437.522,419.433 418.022,408.266 407,382.5C 399.503,348.657 411.67,325.157 443.5,312C 469.632,305.655 489.799,313.822 504,336.5C 507.162,343.311 508.662,350.477 508.5,358C 508.635,364.735 507.635,370.569 505.5,375.5 Z"/></g>
<g><path style="opacity:1" fill="#f6e7c8" d="M 473.5,280.5 C 456.229,280.453 439.062,282.453 422,286.5C 421.235,286.43 420.735,286.097 420.5,285.5C 427.273,283.147 434.273,281.647 441.5,281C 452.161,280.5 462.828,280.333 473.5,280.5 Z"/></g>
<g><path style="opacity:1" fill="#160e0a" d="M 630.5,256.5 C 645.548,255.398 660.215,257.231 674.5,262C 693.142,270.439 701.642,284.939 700,305.5C 698.951,306.517 697.784,306.684 696.5,306C 685.053,293.942 671.053,286.608 654.5,284C 644.207,282.529 633.873,282.196 623.5,283C 613.343,284.872 603.343,287.372 593.5,290.5C 592.833,290.167 592.167,289.833 591.5,289.5C 589.076,274.208 595.409,264.375 610.5,260C 617.303,258.823 623.969,257.656 630.5,256.5 Z"/></g>
<g><path style="opacity:1" fill="#442d20" d="M 630.5,261.5 C 646.46,260.41 661.793,262.91 676.5,269C 682.765,273.263 687.598,278.763 691,285.5C 691.74,288.176 692.073,290.842 692,293.5C 680.006,283.604 666.173,277.771 650.5,276C 632.78,274.382 615.447,276.215 598.5,281.5C 598.619,272.793 602.952,267.293 611.5,265C 617.972,263.813 624.306,262.646 630.5,261.5 Z"/></g>
<g><path style="opacity:1" fill="#160f0a" d="M 512.5,262.5 C 513.481,267.129 513.648,271.796 513,276.5C 512.484,279.034 511.317,281.2 509.5,283C 497.519,282.28 485.519,281.446 473.5,280.5C 462.828,280.333 452.161,280.5 441.5,281C 434.273,281.647 427.273,283.147 420.5,285.5C 409.742,289.046 400.409,294.879 392.5,303C 390.559,303.743 388.726,303.576 387,302.5C 386.875,286.417 393.375,273.75 406.5,264.5C 435.399,247.533 466.065,243.7 498.5,253C 504.062,254.94 508.728,258.107 512.5,262.5 Z"/></g>
<g><path style="opacity:1" fill="#452e20" d="M 449.5,253.5 C 466.565,252.201 483.232,254.034 499.5,259C 508.491,264.612 509.657,271.446 503,279.5C 474.735,269.426 446.235,268.926 417.5,278C 409.792,281.269 402.625,285.436 396,290.5C 397.423,282.182 401.589,275.349 408.5,270C 421.127,261.679 434.794,256.179 449.5,253.5 Z"/></g>
<g><path style="opacity:1" fill="#f5e2c1" d="M 512.5,262.5 C 508.728,258.107 504.062,254.94 498.5,253C 466.065,243.7 435.399,247.533 406.5,264.5C 406.062,264.565 405.728,264.399 405.5,264C 431.402,247.923 459.402,242.923 489.5,249C 495.916,250.359 501.916,252.693 507.5,256C 509.79,257.777 511.457,259.944 512.5,262.5 Z"/></g>
<g><path style="opacity:1" fill="#f3e2c1" d="M 374.5,552.5 C 365.909,537.75 359.243,522.084 354.5,505.5C 360.626,520.72 367.293,536.387 374.5,552.5 Z"/></g>
<g><path style="opacity:1" fill="#1d140f" d="M 468.5,496.5 C 490.759,503.155 513.426,507.989 536.5,511C 544.808,511.904 553.142,512.404 561.5,512.5C 575.532,511.897 589.532,510.897 603.5,509.5C 596.979,511.517 588.979,512.683 579.5,513C 561.514,514.173 543.68,513.339 526,510.5C 525.683,512.301 525.016,512.634 524,511.5C 523.5,512 523,512.5 522.5,513C 529.13,517.31 536.464,519.31 544.5,519C 559.707,519.786 574.874,519.286 590,517.5C 592.033,517.506 593.866,517.839 595.5,518.5C 557.169,523.379 519.502,520.379 482.5,509.5C 482.917,508.876 483.584,508.543 484.5,508.5C 494.021,511.298 503.687,513.298 513.5,514.5C 513.5,513.5 513.5,512.5 513.5,511.5C 510.282,511.349 509.949,510.516 512.5,509C 497.323,506.142 482.656,501.975 468.5,496.5 Z"/></g>
<g><path style="opacity:1" fill="#2d1f17" d="M 450.5,470.5 C 453.5,470.5 456.5,470.5 459.5,470.5C 459.719,471.675 459.386,472.675 458.5,473.5C 451.391,476.22 444.725,479.72 438.5,484C 442.07,485.799 445.737,487.299 449.5,488.5C 455.845,491.17 462.178,493.836 468.5,496.5C 482.656,501.975 497.323,506.142 512.5,509C 509.949,510.516 510.282,511.349 513.5,511.5C 513.5,512.5 513.5,513.5 513.5,514.5C 503.687,513.298 494.021,511.298 484.5,508.5C 483.584,508.543 482.917,508.876 482.5,509.5C 472.707,506.569 463.04,503.236 453.5,499.5C 452.369,501.074 452.202,502.741 453,504.5C 460.88,516.713 471.046,526.547 483.5,534C 492.827,539.265 502.493,543.431 512.5,546.5C 512.062,546.435 511.728,546.601 511.5,547C 534.96,554.639 558.293,554.306 581.5,546C 584.266,544.629 586.599,542.796 588.5,540.5C 594.639,534.354 599.639,527.354 603.5,519.5C 602.829,518.054 601.662,517.388 600,517.5C 598.467,517.773 596.967,518.106 595.5,518.5C 593.866,517.839 592.033,517.506 590,517.5C 574.874,519.286 559.707,519.786 544.5,519C 536.464,519.31 529.13,517.31 522.5,513C 523,512.5 523.5,512 524,511.5C 525.016,512.634 525.683,512.301 526,510.5C 543.68,513.339 561.514,514.173 579.5,513C 588.979,512.683 596.979,511.517 603.5,509.5C 615.314,507.011 626.98,503.677 638.5,499.5C 638.607,501.903 637.607,503.736 635.5,505C 631.651,507.425 627.651,509.592 623.5,511.5C 607.875,544.409 581.709,560.409 545,559.5C 493.344,558.473 456.344,534.806 434,488.5C 431.5,491.667 429,494.833 426.5,498C 425.552,498.483 424.552,498.649 423.5,498.5C 424.125,488.083 429.125,480.583 438.5,476C 442.475,473.854 446.475,472.02 450.5,470.5 Z"/></g>
<g><path style="opacity:1" fill="#fcf1e2" d="M 482.5,509.5 C 519.502,520.379 557.169,523.379 595.5,518.5C 596.967,518.106 598.467,517.773 600,517.5C 601.662,517.388 602.829,518.054 603.5,519.5C 599.639,527.354 594.639,534.354 588.5,540.5C 570.36,550.065 551.027,553.232 530.5,550C 524.448,549.023 518.448,547.856 512.5,546.5C 502.493,543.431 492.827,539.265 483.5,534C 471.046,526.547 460.88,516.713 453,504.5C 452.202,502.741 452.369,501.074 453.5,499.5C 463.04,503.236 472.707,506.569 482.5,509.5 Z"/></g>
<g><path style="opacity:1" fill="#140b07" d="M 588.5,540.5 C 586.599,542.796 584.266,544.629 581.5,546C 558.293,554.306 534.96,554.639 511.5,547C 511.728,546.601 512.062,546.435 512.5,546.5C 518.448,547.856 524.448,549.023 530.5,550C 551.027,553.232 570.36,550.065 588.5,540.5 Z"/></g>
<g><path style="opacity:1" fill="#f0e0c1" d="M 684.5,523.5 C 677.842,542.486 668.842,560.152 657.5,576.5C 667.516,558.727 676.516,541.06 684.5,523.5 Z"/></g>
<g><path style="opacity:1" fill="#281b15" d="M 567.5,575.5 C 568.5,575.5 569.5,575.5 570.5,575.5C 570.292,579.144 568.292,581.311 564.5,582C 551.476,586.55 538.476,586.55 525.5,582C 524.167,581 524.167,580 525.5,579C 533.813,579.405 542.147,579.405 550.5,579C 556.43,578.461 562.096,577.295 567.5,575.5 Z"/></g>
<g><path style="opacity:1" fill="#1c140e" d="M 289.5,308.5 C 290.451,309.919 290.784,311.585 290.5,313.5C 291.006,318.235 291.839,322.902 293,327.5C 308.508,335.342 319.508,347.342 326,363.5C 328.009,370.423 330.842,376.757 334.5,382.5C 335.697,381.739 336.53,380.072 337,377.5C 337.49,378.793 337.657,380.127 337.5,381.5C 338.5,381.5 339.5,381.5 340.5,381.5C 340.393,385.098 339.726,388.598 338.5,392C 338.57,392.765 338.903,393.265 339.5,393.5C 337.913,397.056 335.246,398.222 331.5,397C 329.526,393.543 327.86,390.043 326.5,386.5C 321.624,367.903 311.624,352.736 296.5,341C 293.467,338.792 290.134,337.292 286.5,336.5C 283.305,334.97 279.805,334.304 276,334.5C 272.195,334.304 268.695,334.97 265.5,336.5C 256.782,340.056 250.949,346.389 248,355.5C 246.855,358.432 246.022,361.432 245.5,364.5C 244.596,365.209 244.263,366.209 244.5,367.5C 240.923,387.173 242.257,406.506 248.5,425.5C 251.106,432.716 254.273,439.716 258,446.5C 267.331,463.498 280.831,475.998 298.5,484C 315.123,489.458 328.456,485.125 338.5,471C 339.833,470.333 341.167,470.333 342.5,471C 346.61,482.5 350.61,494 354.5,505.5C 359.243,522.084 365.909,537.75 374.5,552.5C 382.914,567.922 394.247,580.922 408.5,591.5C 423.028,605.033 438.694,617.033 455.5,627.5C 454.448,627.649 453.448,627.483 452.5,627C 446.833,623.167 441.167,619.333 435.5,615.5C 435.331,616.397 434.998,617.397 434.5,618.5C 433.833,617.833 433.167,617.167 432.5,616.5C 430.971,617.763 429.305,618.763 427.5,619.5C 407.358,605.366 389.358,588.7 373.5,569.5C 373.167,569.667 372.833,569.833 372.5,570C 373.819,582.241 374.819,594.408 375.5,606.5C 375.535,619.519 375.035,632.519 374,645.5C 373.388,651.117 372.221,656.617 370.5,662C 376.549,672.606 383.216,682.773 390.5,692.5C 390.573,694.472 389.74,696.472 388,698.5C 387.085,697.672 386.419,696.672 386,695.5C 385.282,696.451 384.449,696.617 383.5,696C 380.963,693.094 378.796,689.927 377,686.5C 376.31,685.262 375.81,685.262 375.5,686.5C 367.225,674.612 361.058,661.612 357,647.5C 356.429,627.895 359.095,627.561 365,646.5C 366.583,635.693 366.75,625.026 365.5,614.5C 368.258,613.033 367.925,612.367 364.5,612.5C 364.491,610.692 364.991,609.025 366,607.5C 366.333,607.833 366.667,608.167 367,608.5C 367.667,602.833 367.667,597.167 367,591.5C 366.823,595.356 366.323,599.023 365.5,602.5C 365.512,587.484 365.012,572.484 364,557.5C 361.094,552.69 358.427,547.69 356,542.5C 349.399,524.364 343.399,506.031 338,487.5C 334.919,490.293 331.419,492.46 327.5,494C 312.28,498.625 297.947,496.625 284.5,488C 255.004,467.202 238.171,438.702 234,402.5C 230.98,380.594 234.647,359.927 245,340.5C 249.563,333.429 255.73,328.429 263.5,325.5C 263.917,326.124 264.584,326.457 265.5,326.5C 271.387,325.899 277.22,325.232 283,324.5C 280.529,310.6 279.029,299.934 278.5,292.5C 279.552,292.351 280.552,292.517 281.5,293C 279.789,294.133 279.289,295.633 280,297.5C 281.462,295.292 283.295,294.626 285.5,295.5C 286.902,299.711 287.736,304.044 288,308.5C 288.807,312.449 289.307,312.449 289.5,308.5 Z"/></g>
<g><path style="opacity:1" fill="#f4e4c3" d="M 286.5,336.5 C 290.134,337.292 293.467,338.792 296.5,341C 311.624,352.736 321.624,367.903 326.5,386.5C 322.843,379.945 319.343,372.611 316,364.5C 308.189,352.166 298.356,342.833 286.5,336.5 Z"/></g>
<g><path style="opacity:1" fill="#f9e4bf" d="M 282.5,359.5 C 274.407,357.315 267.24,358.982 261,364.5C 257.607,371.463 256.274,378.797 257,386.5C 257.671,387.252 258.504,387.586 259.5,387.5C 259.5,388.167 259.167,388.5 258.5,388.5C 257.504,388.586 256.671,388.252 256,387.5C 254.75,379.001 256.083,371.001 260,363.5C 266.93,357.488 274.764,355.988 283.5,359C 283.272,359.399 282.938,359.565 282.5,359.5 Z"/></g>
<g><path style="opacity:1" fill="#f9edcc" d="M 265.5,336.5 C 254.972,343.056 248.472,353.056 246,366.5C 245.536,365.906 245.369,365.239 245.5,364.5C 246.022,361.432 246.855,358.432 248,355.5C 250.949,346.389 256.782,340.056 265.5,336.5 Z"/></g>
<g><path style="opacity:1" fill="#1c130d" d="M 749.5,338.5 C 753.332,342.819 756.165,347.819 758,353.5C 767.192,391.159 762.192,426.826 743,460.5C 733.524,476.321 720.191,487.321 703,493.5C 693.102,538.965 672.935,578.965 642.5,613.5C 641.833,614.833 640.833,615.833 639.5,616.5C 634.364,620.098 629.364,624.598 624.5,630C 621.366,631.252 618.366,631.252 615.5,630C 620,625.5 624.5,621 629,616.5C 629.692,615.563 629.525,614.897 628.5,614.5C 639.725,602.952 649.391,590.286 657.5,576.5C 668.842,560.152 677.842,542.486 684.5,523.5C 695.833,492.225 702.833,459.891 705.5,426.5C 705.368,423.43 705.701,420.43 706.5,417.5C 708.722,417.822 710.556,417.155 712,415.5C 712.333,417.833 712.667,420.167 713,422.5C 713.333,417.167 713.667,411.833 714,406.5C 714.278,405.584 714.778,404.918 715.5,404.5C 715.164,416.198 714.331,427.865 713,439.5C 711.076,453.899 709.076,468.232 707,482.5C 718.283,476.049 727.45,467.383 734.5,456.5C 742.592,443.226 747.926,428.893 750.5,413.5C 751.895,409.409 752.728,405.076 753,400.5C 753.5,393.174 753.666,385.841 753.5,378.5C 753.555,368.167 751.055,358.5 746,349.5C 741.47,343.829 735.637,341.996 728.5,344C 725.274,345.198 722.441,347.031 720,349.5C 718.767,362.169 717.6,374.836 716.5,387.5C 715.637,388.463 714.97,388.463 714.5,387.5C 715.61,382.889 715.777,378.222 715,373.5C 714.667,373.833 714.333,374.167 714,374.5C 713.626,373.584 713.126,372.75 712.5,372C 713.967,370.902 714.801,369.402 715,367.5C 715.333,369.167 715.667,370.833 716,372.5C 716.667,369.5 716.667,366.5 716,363.5C 714.667,364.167 713.333,364.833 712,365.5C 711.333,362.833 711.333,360.167 712,357.5C 713.067,359.283 714.567,359.783 716.5,359C 715.354,358.355 714.354,357.522 713.5,356.5C 712.833,352.353 712.166,348.353 711.5,344.5C 711.952,340.837 712.452,337.17 713,333.5C 714.113,334.711 715.28,334.711 716.5,333.5C 716.533,334.989 717.033,336.322 718,337.5C 723.177,337.75 728.344,336.75 733.5,334.5C 736.443,335.244 739.443,335.744 742.5,336C 745.034,336.516 747.2,337.683 749,339.5C 749.399,339.272 749.565,338.938 749.5,338.5 Z"/></g>
<g><path style="opacity:1" fill="#f6e1bd" d="M 750.5,413.5 C 747.926,428.893 742.592,443.226 734.5,456.5C 733.646,455.368 733.646,454.035 734.5,452.5C 737.144,449.227 739.311,445.56 741,441.5C 744.929,431.787 747.929,421.787 750,411.5C 750.464,412.094 750.631,412.761 750.5,413.5 Z"/></g>
<g><path style="opacity:1" fill="#fbcda8" d="M 753.5,378.5 C 752.883,378.389 752.383,378.056 752,377.5C 751.783,372.708 750.95,368.041 749.5,363.5C 748.808,364.025 748.308,364.692 748,365.5C 747.333,362.833 746.667,362.833 746,365.5C 744.984,364.366 744.317,364.699 744,366.5C 741.561,364.502 739.061,364.169 736.5,365.5C 735.078,365.709 733.745,366.209 732.5,367C 726.152,373.787 720.818,380.62 716.5,387.5C 717.6,374.836 718.767,362.169 720,349.5C 722.441,347.031 725.274,345.198 728.5,344C 735.637,341.996 741.47,343.829 746,349.5C 751.055,358.5 753.555,368.167 753.5,378.5 Z"/></g>
<g><path style="opacity:1" fill="#f2e2c1" d="M 408.5,591.5 C 423.376,603.197 438.71,614.364 454.5,625C 465.565,631.342 476.232,637.175 486.5,642.5C 475.738,638.285 465.405,633.285 455.5,627.5C 438.694,617.033 423.028,605.033 408.5,591.5 Z"/></g>
<g><path style="opacity:1" fill="#f3e3c2" d="M 600.5,638.5 C 595.148,642.846 589.148,646.179 582.5,648.5C 574.95,650.971 567.283,652.971 559.5,654.5C 559.791,653.351 560.624,652.684 562,652.5C 575.724,650.094 588.557,645.427 600.5,638.5 Z"/></g>
<g><path style="opacity:1" fill="#211710" d="M 455.5,627.5 C 465.405,633.285 475.738,638.285 486.5,642.5C 509.65,653.08 533.983,657.08 559.5,654.5C 567.283,652.971 574.95,650.971 582.5,648.5C 582.735,649.097 583.235,649.43 584,649.5C 590.688,646.573 597.188,643.239 603.5,639.5C 605.491,641.611 607.491,642.944 609.5,643.5C 608.695,645.472 607.361,646.972 605.5,648C 597.254,652.123 589.588,655.956 582.5,659.5C 558.238,667.778 533.571,668.612 508.5,662C 478.575,653.041 451.575,638.875 427.5,619.5C 429.305,618.763 430.971,617.763 432.5,616.5C 433.167,617.167 433.833,617.833 434.5,618.5C 434.998,617.397 435.331,616.397 435.5,615.5C 441.167,619.333 446.833,623.167 452.5,627C 453.448,627.483 454.448,627.649 455.5,627.5 Z"/></g>
<g><path style="opacity:1" fill="#efa882" d="M 427.5,619.5 C 451.575,638.875 478.575,653.041 508.5,662C 533.571,668.612 558.238,667.778 582.5,659.5C 590.406,657.131 597.906,653.798 605,649.5C 605.3,656.022 604.8,662.355 603.5,668.5C 603.631,667.761 603.464,667.094 603,666.5C 586.087,694.467 561.087,708.467 528,708.5C 508.699,707.049 490.199,702.216 472.5,694C 436.303,673.142 406.47,645.309 383,610.5C 380.182,606.032 377.848,601.366 376,596.5C 375.502,599.817 375.335,603.15 375.5,606.5C 374.819,594.408 373.819,582.241 372.5,570C 372.833,569.833 373.167,569.667 373.5,569.5C 389.358,588.7 407.358,605.366 427.5,619.5 Z"/></g>
<g><path style="opacity:1" fill="#f0ede6" d="M 642.5,613.5 C 643.525,613.897 643.692,614.563 643,615.5C 637.5,621 632,626.5 626.5,632C 636.713,646.914 645.547,662.747 653,679.5C 673.942,690.544 694.442,701.211 714.5,711.5C 693.122,701.978 672.122,691.644 651.5,680.5C 644.416,663.155 635.416,646.989 624.5,632C 629.703,626.965 634.703,621.798 639.5,616.5C 640.833,615.833 641.833,614.833 642.5,613.5 Z"/></g>
<g><path style="opacity:1" fill="#15100c" d="M 365.5,614.5 C 358.382,617.446 352.216,621.78 347,627.5C 342.608,637.952 337.941,648.285 333,658.5C 326.667,668.167 320.333,677.833 314,687.5C 312.872,704.529 314.872,721.196 320,737.5C 327.702,763.274 337.369,788.274 349,812.5C 349.941,814.061 351.108,815.395 352.5,816.5C 354.167,815.667 355.833,814.833 357.5,814C 372.833,798.667 388.167,783.333 403.5,768C 411.095,761.68 419.428,760.347 428.5,764C 442.091,771.267 455.425,778.934 468.5,787C 475.324,791.985 479.991,798.485 482.5,806.5C 481.041,806.567 479.708,806.234 478.5,805.5C 462.127,793.671 444.793,783.171 426.5,774C 423.689,773.089 420.856,772.256 418,771.5C 410.959,773.937 404.793,777.77 399.5,783C 389.591,794.043 379.591,804.877 369.5,815.5C 364.353,821.152 358.186,825.152 351,827.5C 347.967,827.481 345.633,826.148 344,823.5C 322.378,784.134 308.878,742.134 303.5,697.5C 261.229,718.969 218.896,740.469 176.5,762C 163.812,769.008 151.812,777.008 140.5,786C 151.818,791.98 161.318,800.147 169,810.5C 190.887,840.609 207.221,873.609 218,909.5C 224.779,930.836 230.279,952.503 234.5,974.5C 238.138,990.659 240.804,1006.99 242.5,1023.5C 239.5,1023.5 236.5,1023.5 233.5,1023.5C 228.219,972.261 216.386,922.594 198,874.5C 186.891,845.088 170.391,819.255 148.5,797C 144.633,794.302 140.633,791.802 136.5,789.5C 124.652,800.183 115.486,812.85 109,827.5C 94.4746,861.077 83.1413,895.744 75,931.5C 67.6673,961.997 61.1673,992.664 55.5,1023.5C 52.5,1023.5 49.5,1023.5 46.5,1023.5C 50.223,1003.5 54.0563,983.498 58,963.5C 66.7595,919.46 79.0928,876.46 95,834.5C 106.048,804.656 124.882,781.323 151.5,764.5C 165.311,756.425 179.311,748.592 193.5,741C 230.655,722.589 267.655,703.922 304.5,685C 305.572,681.351 307.072,677.851 309,674.5C 315.477,665.869 321.31,656.869 326.5,647.5C 331.602,638.405 336.435,629.071 341,619.5C 347.922,611.962 356.089,606.296 365.5,602.5C 366.323,599.023 366.823,595.356 367,591.5C 367.667,597.167 367.667,602.833 367,608.5C 366.667,608.167 366.333,607.833 366,607.5C 364.991,609.025 364.491,610.692 364.5,612.5C 367.925,612.367 368.258,613.033 365.5,614.5 Z"/></g>
<g><path style="opacity:1" fill="#f7f4ee" d="M 326.5,647.5 C 321.31,656.869 315.477,665.869 309,674.5C 307.072,677.851 305.572,681.351 304.5,685C 267.655,703.922 230.655,722.589 193.5,741C 179.311,748.592 165.311,756.425 151.5,764.5C 150.262,764.19 150.262,763.69 151.5,763C 156.001,760.584 160.334,757.917 164.5,755C 210.648,730.926 256.982,707.426 303.5,684.5C 304.031,681.763 304.864,679.096 306,676.5C 312.738,666.065 319.572,656.398 326.5,647.5 Z"/></g>
<g><path style="opacity:1" fill="#16110d" d="M 628.5,614.5 C 629.525,614.897 629.692,615.563 629,616.5C 624.5,621 620,625.5 615.5,630C 618.366,631.252 621.366,631.252 624.5,630C 629.364,624.598 634.364,620.098 639.5,616.5C 634.703,621.798 629.703,626.965 624.5,632C 635.416,646.989 644.416,663.155 651.5,680.5C 672.122,691.644 693.122,701.978 714.5,711.5C 715.29,712.401 716.29,713.068 717.5,713.5C 752.189,728.564 786.189,745.064 819.5,763C 832.692,771.026 843.358,781.526 851.5,794.5C 863.639,818.073 873.139,842.74 880,868.5C 893.1,919.77 904.266,971.437 913.5,1023.5C 910.167,1023.5 906.833,1023.5 903.5,1023.5C 894.414,969.237 882.58,915.57 868,862.5C 861.96,841.714 853.96,821.714 844,802.5C 840.769,796.601 836.769,791.268 832,786.5C 831.831,816.181 831.164,845.848 830,875.5C 825.331,924.853 820.497,974.187 815.5,1023.5C 812.833,1023.5 810.167,1023.5 807.5,1023.5C 808.114,1008.79 809.281,994.126 811,979.5C 816.242,939.228 820.909,898.894 825,858.5C 826.314,832.511 826.647,806.511 826,780.5C 819.438,775.607 812.604,771.107 805.5,767C 769.286,748.558 732.62,731.225 695.5,715C 682.968,709.151 670.801,702.651 659,695.5C 673.037,730.814 682.537,767.481 687.5,805.5C 687.743,810.473 685.743,814.14 681.5,816.5C 676.16,812.488 671.16,808.155 666.5,803.5C 656.024,790.56 646.524,776.894 638,762.5C 636.235,760.226 634.068,758.559 631.5,757.5C 629.617,757.876 628.117,758.876 627,760.5C 620.616,769.89 613.116,778.39 604.5,786C 595.333,793.167 586.167,800.333 577,807.5C 575.748,810.014 575.248,812.68 575.5,815.5C 572.076,833.539 570.909,851.873 572,870.5C 578.871,921.286 583.038,972.286 584.5,1023.5C 582.833,1023.5 581.167,1023.5 579.5,1023.5C 579.423,1001.47 578.59,979.473 577,957.5C 573.219,924.031 569.719,890.531 566.5,857C 567.015,842.347 568.682,827.847 571.5,813.5C 571.167,813.167 570.833,812.833 570.5,812.5C 563.412,818.045 555.412,821.378 546.5,822.5C 547.091,819.386 548.758,816.886 551.5,815C 566.115,804.719 580.449,794.052 594.5,783C 606.288,771.885 617.288,760.218 627.5,748C 634.011,746.126 639.178,747.959 643,753.5C 652.961,770.416 664.628,786.083 678,800.5C 670.553,746.659 653.053,696.326 625.5,649.5C 623.878,646.545 621.878,643.878 619.5,641.5C 616.931,644.397 615.264,647.73 614.5,651.5C 612.095,673.155 609.595,694.821 607,716.5C 604.477,732.209 599.143,746.875 591,760.5C 586,767.5 581,774.5 576,781.5C 560.277,799.955 545.277,818.955 531,838.5C 524.521,851.364 521.688,865.031 522.5,879.5C 523.611,903.552 525.444,927.552 528,951.5C 529.166,975.486 529.666,999.486 529.5,1023.5C 526.833,1023.5 524.167,1023.5 521.5,1023.5C 521.689,1001.48 521.189,979.484 520,957.5C 518.045,932.001 516.212,906.501 514.5,881C 513.021,864.216 516.688,848.716 525.5,834.5C 509.049,815.215 491.383,797.048 472.5,780C 454.5,766 436.5,752 418.5,738C 401.696,722.713 387.362,705.547 375.5,686.5C 375.81,685.262 376.31,685.262 377,686.5C 378.796,689.927 380.963,693.094 383.5,696C 384.449,696.617 385.282,696.451 386,695.5C 386.419,696.672 387.085,697.672 388,698.5C 389.74,696.472 390.573,694.472 390.5,692.5C 394.705,698.249 399.372,703.582 404.5,708.5C 415.288,722.291 427.954,733.958 442.5,743.5C 455.557,753.043 468.223,763.21 480.5,774C 485.486,774.997 490.486,775.831 495.5,776.5C 491.673,777.061 487.673,777.228 483.5,777C 488.058,781.794 493.724,784.127 500.5,784C 499.552,784.483 498.552,784.649 497.5,784.5C 495.801,784.34 494.134,784.506 492.5,785C 506.074,798.071 519.074,811.571 531.5,825.5C 543.826,809.505 556.16,793.505 568.5,777.5C 570.674,775.157 572.674,772.657 574.5,770C 571.299,770.329 568.133,771.162 565,772.5C 564.235,772.43 563.735,772.097 563.5,771.5C 568.494,769.921 573.327,767.921 578,765.5C 588.614,748.595 595.614,730.262 599,710.5C 601.486,696.6 602.986,682.6 603.5,668.5C 604.8,662.355 605.3,656.022 605,649.5C 597.906,653.798 590.406,657.131 582.5,659.5C 589.588,655.956 597.254,652.123 605.5,648C 607.361,646.972 608.695,645.472 609.5,643.5C 607.491,642.944 605.491,641.611 603.5,639.5C 597.188,643.239 590.688,646.573 584,649.5C 583.235,649.43 582.735,649.097 582.5,648.5C 589.148,646.179 595.148,642.846 600.5,638.5C 611.311,632.366 620.644,624.366 628.5,614.5 Z"/></g>
<g><path style="opacity:1" fill="#1a434c" d="M 625.5,649.5 C 624.957,649.56 624.624,649.893 624.5,650.5C 625.747,652.497 626.581,654.497 627,656.5C 623.898,656.217 620.898,656.217 618,656.5C 617,657.5 616,658.5 615,659.5C 615.492,656.681 615.326,654.014 614.5,651.5C 615.264,647.73 616.931,644.397 619.5,641.5C 621.878,643.878 623.878,646.545 625.5,649.5 Z"/></g>
<g><path style="opacity:1" fill="#fdcca5" d="M 603.5,668.5 C 602.986,682.6 601.486,696.6 599,710.5C 595.614,730.262 588.614,748.595 578,765.5C 573.327,767.921 568.494,769.921 563.5,771.5C 541.958,778.25 519.958,780.25 497.5,777.5C 497.158,776.662 496.492,776.328 495.5,776.5C 490.486,775.831 485.486,774.997 480.5,774C 468.223,763.21 455.557,753.043 442.5,743.5C 429.187,732.519 416.52,720.853 404.5,708.5C 399.372,703.582 394.705,698.249 390.5,692.5C 383.216,682.773 376.549,672.606 370.5,662C 372.221,656.617 373.388,651.117 374,645.5C 375.035,632.519 375.535,619.519 375.5,606.5C 375.335,603.15 375.502,599.817 376,596.5C 377.848,601.366 380.182,606.032 383,610.5C 406.47,645.309 436.303,673.142 472.5,694C 490.199,702.216 508.699,707.049 528,708.5C 561.087,708.467 586.087,694.467 603,666.5C 603.464,667.094 603.631,667.761 603.5,668.5 Z"/></g>
<g><path style="opacity:1" fill="#f3efea" d="M 851.5,794.5 C 843.358,781.526 832.692,771.026 819.5,763C 786.189,745.064 752.189,728.564 717.5,713.5C 717.369,712.761 717.536,712.094 718,711.5C 733.282,719.109 748.782,726.275 764.5,733C 787.566,743.699 809.899,755.699 831.5,769C 835.333,772.833 839.167,776.667 843,780.5C 846.627,784.767 849.461,789.434 851.5,794.5 Z"/></g>
<g><path style="opacity:1" fill="#f0dfc1" d="M 404.5,708.5 C 416.52,720.853 429.187,732.519 442.5,743.5C 427.954,733.958 415.288,722.291 404.5,708.5 Z"/></g>
<g><path style="opacity:1" fill="#35251c" d="M 495.5,776.5 C 496.492,776.328 497.158,776.662 497.5,777.5C 502.683,779.06 508.683,779.893 515.5,780C 514.062,780.219 512.729,780.719 511.5,781.5C 513.991,782.541 513.991,783.374 511.5,784C 507.975,784.179 504.641,784.679 501.5,785.5C 499.901,785.768 498.568,785.434 497.5,784.5C 498.552,784.649 499.552,784.483 500.5,784C 493.724,784.127 488.058,781.794 483.5,777C 487.673,777.228 491.673,777.061 495.5,776.5 Z"/></g>
<g><path style="opacity:1" fill="#2a1e16" d="M 568.5,777.5 C 546.711,784.66 524.377,787.327 501.5,785.5C 504.641,784.679 507.975,784.179 511.5,784C 513.991,783.374 513.991,782.541 511.5,781.5C 512.729,780.719 514.062,780.219 515.5,780C 508.683,779.893 502.683,779.06 497.5,777.5C 519.958,780.25 541.958,778.25 563.5,771.5C 563.735,772.097 564.235,772.43 565,772.5C 568.133,771.162 571.299,770.329 574.5,770C 572.674,772.657 570.674,775.157 568.5,777.5 Z"/></g>
<g><path style="opacity:1" fill="#fcf2e3" d="M 568.5,777.5 C 556.16,793.505 543.826,809.505 531.5,825.5C 519.074,811.571 506.074,798.071 492.5,785C 494.134,784.506 495.801,784.34 497.5,784.5C 498.568,785.434 499.901,785.768 501.5,785.5C 524.377,787.327 546.711,784.66 568.5,777.5 Z"/></g>
<g><path style="opacity:1" fill="#183f47" d="M 666.5,803.5 C 659.158,802.052 651.824,800.385 644.5,798.5C 643.353,798.182 642.519,797.516 642,796.5C 633.4,797.059 624.566,797.559 615.5,798C 603.172,798.455 591.672,801.622 581,807.5C 578.362,814.576 576.695,821.909 576,829.5C 575.919,824.643 575.752,819.977 575.5,815.5C 575.248,812.68 575.748,810.014 577,807.5C 586.167,800.333 595.333,793.167 604.5,786C 613.116,778.39 620.616,769.89 627,760.5C 628.117,758.876 629.617,757.876 631.5,757.5C 634.068,758.559 636.235,760.226 638,762.5C 646.524,776.894 656.024,790.56 666.5,803.5 Z"/></g>
<g><path style="opacity:1" fill="#225d6d" d="M 625.5,649.5 C 653.053,696.326 670.553,746.659 678,800.5C 664.628,786.083 652.961,770.416 643,753.5C 639.178,747.959 634.011,746.126 627.5,748C 617.288,760.218 606.288,771.885 594.5,783C 580.449,794.052 566.115,804.719 551.5,815C 548.758,816.886 547.091,819.386 546.5,822.5C 555.412,821.378 563.412,818.045 570.5,812.5C 570.833,812.833 571.167,813.167 571.5,813.5C 568.682,827.847 567.015,842.347 566.5,857C 569.719,890.531 573.219,924.031 577,957.5C 578.59,979.473 579.423,1001.47 579.5,1023.5C 562.833,1023.5 546.167,1023.5 529.5,1023.5C 529.666,999.486 529.166,975.486 528,951.5C 525.444,927.552 523.611,903.552 522.5,879.5C 521.688,865.031 524.521,851.364 531,838.5C 545.277,818.955 560.277,799.955 576,781.5C 581,774.5 586,767.5 591,760.5C 599.143,746.875 604.477,732.209 607,716.5C 609.595,694.821 612.095,673.155 614.5,651.5C 615.326,654.014 615.492,656.681 615,659.5C 616,658.5 617,657.5 618,656.5C 620.898,656.217 623.898,656.217 627,656.5C 626.581,654.497 625.747,652.497 624.5,650.5C 624.624,649.893 624.957,649.56 625.5,649.5 Z"/></g>
<g><path style="opacity:1" fill="#191410" d="M 538.5,857.5 C 554.817,857.629 560.317,865.296 555,880.5C 548.666,888.788 541.666,889.454 534,882.5C 528.232,872.67 529.732,864.336 538.5,857.5 Z"/></g>
<g><path style="opacity:1" fill="#17424b" d="M 540.5,863.5 C 546.026,863.853 549.693,866.686 551.5,872C 549.557,879.903 545.391,881.736 539,877.5C 536.653,872.448 537.153,867.781 540.5,863.5 Z"/></g>
<g><path style="opacity:1" fill="#225c6c" d="M 233.5,1023.5 C 174.167,1023.5 114.833,1023.5 55.5,1023.5C 61.1673,992.664 67.6673,961.997 75,931.5C 83.1413,895.744 94.4746,861.077 109,827.5C 115.486,812.85 124.652,800.183 136.5,789.5C 140.633,791.802 144.633,794.302 148.5,797C 170.391,819.255 186.891,845.088 198,874.5C 216.386,922.594 228.219,972.261 233.5,1023.5 Z"/></g>
<g><path style="opacity:1" fill="#225c6c" d="M 365.5,614.5 C 366.75,625.026 366.583,635.693 365,646.5C 359.095,627.561 356.429,627.895 357,647.5C 361.058,661.612 367.225,674.612 375.5,686.5C 387.362,705.547 401.696,722.713 418.5,738C 436.5,752 454.5,766 472.5,780C 491.383,797.048 509.049,815.215 525.5,834.5C 516.688,848.716 513.021,864.216 514.5,881C 516.212,906.501 518.045,932.001 520,957.5C 521.189,979.484 521.689,1001.48 521.5,1023.5C 432.5,1023.5 343.5,1023.5 254.5,1023.5C 254.598,1020.39 253.265,1017.55 250.5,1015C 250.833,1014.67 251.167,1014.33 251.5,1014C 249.002,1012.91 247.002,1011.25 245.5,1009C 246.711,1008.21 247.711,1007.55 248.5,1007C 248.108,1005.99 247.441,1005.49 246.5,1005.5C 248.781,1003.33 248.781,1001.33 246.5,999.5C 246.901,997.566 247.901,996.066 249.5,995C 248.5,994.667 247.5,994.333 246.5,994C 246.833,993.667 247.167,993.333 247.5,993C 246.692,992.692 246.025,992.192 245.5,991.5C 246.833,990.167 246.833,988.833 245.5,987.5C 247.748,986.676 247.914,985.676 246,984.5C 245.667,984.833 245.333,985.167 245,985.5C 242.768,982.451 241.601,979.284 241.5,976C 242.328,975.085 243.328,974.419 244.5,974C 242.697,972.738 241.364,971.071 240.5,969C 241.833,969 243.167,969 244.5,969C 242.102,967.644 239.602,966.477 237,965.5C 236.508,966.549 236.674,967.549 237.5,968.5C 237.154,969.696 236.654,969.696 236,968.5C 235.809,970.708 235.309,972.708 234.5,974.5C 230.279,952.503 224.779,930.836 218,909.5C 207.221,873.609 190.887,840.609 169,810.5C 161.318,800.147 151.818,791.98 140.5,786C 151.812,777.008 163.812,769.008 176.5,762C 218.896,740.469 261.229,718.969 303.5,697.5C 308.878,742.134 322.378,784.134 344,823.5C 345.633,826.148 347.967,827.481 351,827.5C 358.186,825.152 364.353,821.152 369.5,815.5C 369.938,815.435 370.272,815.601 370.5,816C 362.795,823.698 363.961,824.531 374,818.5C 374.333,818.833 374.667,819.167 375,819.5C 387.995,814.604 401.162,810.104 414.5,806C 430.954,802.487 447.287,802.987 463.5,807.5C 464.086,807.291 464.586,806.957 465,806.5C 471.288,809.297 477.455,812.297 483.5,815.5C 483.25,811.55 481.25,808.383 477.5,806C 477.728,805.601 478.062,805.435 478.5,805.5C 479.708,806.234 481.041,806.567 482.5,806.5C 479.991,798.485 475.324,791.985 468.5,787C 455.425,778.934 442.091,771.267 428.5,764C 419.428,760.347 411.095,761.68 403.5,768C 388.167,783.333 372.833,798.667 357.5,814C 355.833,814.833 354.167,815.667 352.5,816.5C 351.108,815.395 349.941,814.061 349,812.5C 337.369,788.274 327.702,763.274 320,737.5C 314.872,721.196 312.872,704.529 314,687.5C 320.333,677.833 326.667,668.167 333,658.5C 337.941,648.285 342.608,637.952 347,627.5C 352.216,621.78 358.382,617.446 365.5,614.5 Z"/></g>
<g><path style="opacity:1" fill="#183f48" d="M 478.5,805.5 C 478.062,805.435 477.728,805.601 477.5,806C 481.25,808.383 483.25,811.55 483.5,815.5C 477.455,812.297 471.288,809.297 465,806.5C 464.586,806.957 464.086,807.291 463.5,807.5C 447.287,802.987 430.954,802.487 414.5,806C 401.162,810.104 387.995,814.604 375,819.5C 374.667,819.167 374.333,818.833 374,818.5C 363.961,824.531 362.795,823.698 370.5,816C 370.272,815.601 369.938,815.435 369.5,815.5C 379.591,804.877 389.591,794.043 399.5,783C 404.793,777.77 410.959,773.937 418,771.5C 420.856,772.256 423.689,773.089 426.5,774C 444.793,783.171 462.127,793.671 478.5,805.5 Z"/></g>
<g><path style="opacity:1" fill="#1d525f" d="M 254.5,1023.5 C 250.5,1023.5 246.5,1023.5 242.5,1023.5C 240.804,1006.99 238.138,990.659 234.5,974.5C 235.309,972.708 235.809,970.708 236,968.5C 236.654,969.696 237.154,969.696 237.5,968.5C 236.674,967.549 236.508,966.549 237,965.5C 239.602,966.477 242.102,967.644 244.5,969C 243.167,969 241.833,969 240.5,969C 241.364,971.071 242.697,972.738 244.5,974C 243.328,974.419 242.328,975.085 241.5,976C 241.601,979.284 242.768,982.451 245,985.5C 245.333,985.167 245.667,984.833 246,984.5C 247.914,985.676 247.748,986.676 245.5,987.5C 246.833,988.833 246.833,990.167 245.5,991.5C 246.025,992.192 246.692,992.692 247.5,993C 247.167,993.333 246.833,993.667 246.5,994C 247.5,994.333 248.5,994.667 249.5,995C 247.901,996.066 246.901,997.566 246.5,999.5C 248.781,1001.33 248.781,1003.33 246.5,1005.5C 247.441,1005.49 248.108,1005.99 248.5,1007C 247.711,1007.55 246.711,1008.21 245.5,1009C 247.002,1011.25 249.002,1012.91 251.5,1014C 251.167,1014.33 250.833,1014.67 250.5,1015C 253.265,1017.55 254.598,1020.39 254.5,1023.5 Z"/></g>
<g><path style="opacity:1" fill="#1a1612" d="M 549.5,981.5 C 563.172,982.14 568.006,989.14 564,1002.5C 560.578,1009.3 555.411,1011.13 548.5,1008C 539.135,998.748 539.468,989.915 549.5,981.5 Z"/></g>
<g><path style="opacity:1" fill="#18464f" d="M 551.5,988.5 C 558.314,988.49 560.814,991.823 559,998.5C 555.667,1003.83 552.333,1003.83 549,998.5C 547.861,994.579 548.695,991.246 551.5,988.5 Z"/></g>
<g><path style="opacity:1" fill="#225c6c" d="M 903.5,1023.5 C 874.167,1023.5 844.833,1023.5 815.5,1023.5C 820.497,974.187 825.331,924.853 830,875.5C 831.164,845.848 831.831,816.181 832,786.5C 836.769,791.268 840.769,796.601 844,802.5C 853.96,821.714 861.96,841.714 868,862.5C 882.58,915.57 894.414,969.237 903.5,1023.5 Z"/></g>
<g><path style="opacity:1" fill="#225c6c" d="M 807.5,1023.5 C 733.167,1023.5 658.833,1023.5 584.5,1023.5C 583.038,972.286 578.871,921.286 572,870.5C 570.909,851.873 572.076,833.539 575.5,815.5C 575.752,819.977 575.919,824.643 576,829.5C 576.695,821.909 578.362,814.576 581,807.5C 591.672,801.622 603.172,798.455 615.5,798C 624.566,797.559 633.4,797.059 642,796.5C 642.519,797.516 643.353,798.182 644.5,798.5C 651.824,800.385 659.158,802.052 666.5,803.5C 671.16,808.155 676.16,812.488 681.5,816.5C 685.743,814.14 687.743,810.473 687.5,805.5C 682.537,767.481 673.037,730.814 659,695.5C 670.801,702.651 682.968,709.151 695.5,715C 732.62,731.225 769.286,748.558 805.5,767C 812.604,771.107 819.438,775.607 826,780.5C 826.647,806.511 826.314,832.511 825,858.5C 820.909,898.894 816.242,939.228 811,979.5C 809.281,994.126 808.114,1008.79 807.5,1023.5 Z"/></g>
</svg>
